<svg width="1244" height="1034" viewBox="0 0 1244 1034" fill="none" xmlns="http://www.w3.org/2000/svg">
<rect x="0.5" y="0.5" width="1243" height="1033" fill="#FFCA00" stroke="white"/>
<path d="M1066.04 292.888C1065.99 293.238 1065.85 293.588 1065.71 294.025C1065.56 294.549 1065.37 295.03 1065.14 295.598C1065.47 294.724 1065.75 293.806 1066.04 292.888Z" fill="#E30616"/>
<path d="M992.661 160.168C992.794 175.285 993.146 190.27 993.763 205.254H958.543V169.256C958.543 167.66 958.234 166.109 957.661 164.69C957.088 163.316 956.207 162.03 955.193 160.966C954.884 160.656 954.576 160.39 954.267 160.168C954.003 159.902 953.738 159.68 953.474 159.503C952.063 158.528 950.476 157.863 948.713 157.641C948.228 157.553 947.699 157.508 947.17 157.508C946.729 157.508 946.288 157.508 945.892 157.508C943.688 157.774 941.616 158.705 939.985 160.124C938.618 161.276 937.472 162.784 936.811 164.513C936.635 164.779 936.547 165.045 936.458 165.311C936.062 166.552 935.797 167.838 935.797 169.212V205.21H900.709C901.326 190.226 901.679 175.241 901.811 160.124V131.13C901.679 115.969 901.326 100.984 900.709 86H935.797V121.466C935.797 123.239 936.15 124.968 936.811 126.52C937.384 127.894 938.133 129.135 939.103 130.155C939.412 130.51 939.765 130.82 940.117 131.13C942.057 132.771 944.525 133.79 947.17 133.79C949.815 133.79 952.239 132.815 954.179 131.13C955.678 129.889 956.868 128.204 957.661 126.298C957.661 126.298 957.661 126.283 957.661 126.254C958.234 124.747 958.543 123.151 958.543 121.466V86H993.763C993.146 100.984 992.794 115.969 992.661 131.13V160.124V160.168Z" fill="#E30616"/>
<path d="M140.707 205.254C140.707 205.254 140.707 203.008 140.707 202.744C140.707 200.894 140.265 199.176 139.471 197.678C137.616 194.023 133.817 191.512 129.445 191.512C126.442 191.512 123.66 192.701 121.628 194.639C119.508 196.665 118.183 199.528 118.183 202.744C118.183 203.008 118.183 205.21 118.183 205.254H84C91.1988 166.274 96.9843 125.84 100.959 86.9036H160.228C164.07 125.884 169.856 166.318 177.054 205.254H140.707ZM129.401 115.533C123.174 115.533 118.095 120.554 118.095 126.809C118.095 133.063 123.174 138.085 129.401 138.085C135.628 138.085 140.707 133.019 140.707 126.809C140.707 120.599 135.628 115.533 129.401 115.533Z" fill="#E30616"/>
<path d="M259.011 142.73V141.188C273.259 140.042 294.035 133.918 294.035 114.398C294.035 97.3903 278.64 86.9036 250.762 86.9036L203.256 87.0357C205.02 125.458 205.02 166.568 203.256 204.99C203.256 204.99 246.043 205.254 249.748 205.254C283.007 205.254 300.827 192.653 300.827 174.058C300.827 155.464 281.551 143.083 259.011 142.73ZM244.587 110.829C250.807 110.829 255.835 115.852 255.835 122.065C255.835 128.278 250.807 133.301 244.587 133.301C238.368 133.301 233.339 128.278 233.339 122.065C233.339 115.852 238.368 110.829 244.587 110.829ZM259.761 178.288C246.351 178.288 235.456 174.851 235.456 170.622C235.456 166.392 246.351 162.955 259.761 162.955C273.17 162.955 284.022 166.392 284.022 170.622C284.022 174.851 273.126 178.288 259.761 178.288Z" fill="#E30616"/>
<path d="M416.466 194.351C405.951 201.193 392.445 205.254 378.807 205.254C347.043 205.254 327.025 183.315 327.025 147.558C327.025 111.801 346.075 86.9036 379.247 86.9036C392.445 86.9036 405.907 90.7883 416.422 97.5865L404.764 131.754L401.816 140.406C397.9 139.568 393.149 139.038 388.046 139.038C374.583 139.038 363.629 142.525 363.629 146.763C363.629 151.001 374.583 154.488 388.046 154.488C393.105 154.488 397.812 154.003 401.684 153.12L404.368 160.58L416.422 194.307L416.466 194.351Z" fill="#E30616"/>
<path d="M619.705 115.703C618.059 115.703 616.546 116.057 615.123 116.677C613.877 117.252 612.721 118.005 611.787 118.934C609.651 120.971 608.317 123.848 608.317 127.035C608.317 130.399 609.785 133.41 612.143 135.49C613.032 136.287 614.011 136.951 615.123 137.438C616.546 138.058 618.059 138.412 619.705 138.412H630.07C630.337 138.412 630.915 138.412 630.959 138.412V151.293C630.959 151.293 630.337 151.293 630.07 151.293H619.705C618.059 151.293 616.546 151.647 615.123 152.267C614.144 152.71 613.21 153.285 612.409 153.949C609.918 156.03 608.317 159.173 608.317 162.67C608.317 166.698 610.452 170.284 613.655 172.231C614.1 172.541 614.634 172.807 615.123 173.028C616.546 173.648 618.059 174.002 619.705 174.002H649.331C649.331 174.002 649.465 174.002 649.554 174.002L648.13 205.254H561.964C562.765 188.167 563.121 170.771 563.254 153.374L563.077 136.287C563.077 119.51 562.587 102.6 561.92 86H644.527L645.995 115.88H645.817" fill="#E30616"/>
<path d="M744.112 136.57V155.839H711.899C711.899 172.444 712.385 188.916 713.004 205.254H675.798C676.593 188.161 676.947 170.757 677.08 153.352L676.903 136.259C676.903 119.521 676.417 102.605 675.754 86H757.501L758.87 113.616H723.167C720.03 113.616 717.202 114.903 715.125 116.99C714.595 117.523 714.109 118.1 713.711 118.722C712.783 120.142 712.164 121.741 711.899 123.472C711.811 123.961 711.767 124.493 711.767 125.026C711.767 125.47 711.767 125.914 711.855 126.314C712.341 130.754 715.346 134.439 719.411 135.815C720.604 136.259 721.886 136.481 723.211 136.481H744.112V136.57Z" fill="#E30616"/>
<path d="M874.513 137.701V205.254H854.843V205.122H820.928C820.443 205.166 819.958 205.166 819.473 205.166C797.95 205.166 785.072 182.044 785.072 150.61C785.072 112.722 804.125 86.9036 837.334 86.9036C850.477 86.9036 863.972 90.7941 874.513 97.6467L863.62 129.566C859.386 123.377 852.285 119.265 844.258 119.265C831.38 119.265 820.884 129.787 820.884 142.697C820.884 155.606 831.38 166.172 844.258 166.172C852.682 166.172 860.091 161.663 864.193 154.899H854.181V137.48H862.826V137.701H874.513Z" fill="#E30616"/>
<path d="M487.256 86.9916C483.691 86.9916 442.666 86.9036 442.666 86.9036C444.383 124.623 444.383 167.535 442.666 205.254C442.666 205.254 483.471 205.254 486.112 205.254C517.013 205.254 535.72 180.387 535.72 145.793C535.72 111.199 517.981 87.0356 487.256 87.0356V86.9916ZM490.998 166.523C489.897 168.592 488.577 169.78 487.168 169.78C486.596 169.78 486.068 169.604 485.54 169.208C482.062 166.875 479.465 157.104 479.465 145.441C479.465 134.482 481.754 125.195 484.923 122.158C485.628 121.454 486.376 121.102 487.168 121.102C488.665 121.102 490.118 122.51 491.262 124.931C493.419 129.288 494.828 136.858 494.828 145.441C494.828 154.023 493.287 162.298 490.954 166.479L490.998 166.523Z" fill="#E30616"/>
<path d="M1019.97 86H1057.01C1057.01 128.283 1055.42 165.947 1057.01 205.254H1019.97C1021.73 165.947 1019.97 138.054 1019.97 86Z" fill="#E30616"/>
<path d="M1118 205.21C1100.23 205.21 1089.54 198.25 1083.21 194.082L1095.13 163.582C1099.78 168.237 1104.3 171.163 1111 171.163C1120.35 171.163 1122.43 159.636 1122.43 132.372C1122.43 129.8 1122.43 125.456 1122.43 120.269H1108.38V86H1159.97V134.766C1160.81 189.472 1144.85 205.254 1118 205.254V205.21Z" fill="#E30616"/>
<path d="M177.958 354.322H137.969C137.969 335.812 135.839 326.335 133.087 319.117C130.069 312.607 126.385 304.238 121.015 300.562C120.971 324.21 120.926 345.908 121.281 354.101H84C85.7753 314.954 84 277.668 84 235.466H121.281C121.281 246.449 121.193 261.903 121.104 278.155C128.782 267.527 145.337 235.068 177.514 235.068C177.514 251.63 177.47 267.66 177.47 284.178C144.05 277.712 130.025 281.964 124.033 287.942C141.342 310.969 177.958 265.003 177.958 354.322Z" fill="#E30616"/>
<path d="M438.105 353.419C434.765 314.541 433.008 273.946 433.008 235.068H322.185C322.185 273.946 320.428 314.541 317.088 353.419H348.814C348.77 353.198 348.77 349.588 348.77 349.368C348.77 347.034 349.473 344.877 350.704 343.072C351.583 341.751 352.725 340.65 354.087 339.814C355.801 338.757 357.822 338.14 359.932 338.14C361.689 338.14 363.315 338.537 364.809 339.241C365.908 339.77 366.918 340.474 367.797 341.355C369.863 343.38 371.137 346.198 371.137 349.324C371.137 349.588 371.137 353.154 371.093 353.375H385.858C385.814 353.11 385.814 349.544 385.814 349.324C385.814 345.714 387.527 342.499 390.164 340.474V340.122L390.208 340.43C392.054 338.977 394.426 338.14 396.975 338.14C398.381 338.14 399.787 338.405 401.018 338.889C404.489 340.21 407.082 343.248 407.873 346.946C408.049 347.695 408.136 348.487 408.136 349.324C408.136 349.588 408.136 353.154 408.092 353.419H438.149H438.105Z" fill="#E30616"/>
<path d="M204.16 235.112H231.357C230.214 263.653 229.907 268.698 230.39 297.682C247.35 297.372 274.239 296.576 290.89 294.452L289.309 354.322H204.204C205.962 314.984 205.962 274.406 204.204 235.068L204.16 235.112Z" fill="#E30616"/>
<path d="M622.992 234.165C597.198 234.165 576.377 255.959 576.377 295.908C576.377 335.857 597.198 354.322 622.992 354.322C648.787 354.322 669.431 335.679 669.431 295.908C669.431 256.137 648.479 234.165 622.992 234.165ZM622.904 302.122C609.347 302.122 598.254 298.571 598.254 294.266C598.254 289.96 609.347 286.409 622.904 286.409C636.462 286.409 647.554 289.916 647.554 294.266C647.554 298.616 636.506 302.122 622.904 302.122Z" fill="#E30616"/>
<path d="M742.473 235.068C737.312 235.068 728.237 235.244 695.629 235.244C696.296 251.981 696.786 269.424 696.786 286.117V302.986C696.786 319.988 696.296 336.681 695.629 353.419H733.531C731.752 338.575 731.752 329.326 731.752 327.432H757.242C791.541 327.432 792.297 295.19 792.297 271.185C792.297 244.141 770.899 235.068 742.473 235.068ZM741.094 288.187C734.821 288.187 729.661 283.078 729.661 276.867C729.661 270.657 734.821 265.547 741.094 265.547C747.366 265.547 752.527 270.613 752.527 276.867C752.527 283.122 747.411 288.187 741.094 288.187Z" fill="#E30616"/>
<path d="M1030.11 306.918C1030.11 306.918 1030.2 306.741 1030.2 306.653C1030.5 305.768 1030.77 304.839 1031.03 303.91C1033.85 293.734 1033.98 281.877 1033.98 271.568C1033.98 244.226 1012.67 235.068 984.393 235.068C979.284 235.068 970.212 235.245 937.754 235.245C938.415 252.146 938.899 269.799 938.899 286.611V303.644C938.899 320.855 938.415 337.446 937.754 354.302H970.432V350.099C970.432 343.861 975.497 338.773 981.707 338.773H981.883C988.136 338.773 993.201 343.861 993.201 350.099V354.302C1002.45 354.302 1036.27 354.347 1036.23 354.302C1025.66 328.907 1027.33 316.032 1030.11 306.918ZM983.028 288.602C976.774 288.602 971.665 283.47 971.665 277.187C971.665 270.905 976.774 265.817 983.028 265.817C989.282 265.817 994.346 270.905 994.346 277.187C994.346 283.47 989.282 288.602 983.028 288.602Z" fill="#E30616"/>
<path d="M1067.94 299.309C1074.4 305.431 1094.52 306.895 1102.76 306.895C1110.51 306.895 1114.23 304.677 1114.23 298.422C1114.23 283.515 1067.85 297.49 1067.85 267.987C1067.85 249.354 1088.36 235.068 1117.47 235.068C1133.64 235.068 1149.94 239.371 1160 245.361V278.147C1153.49 272.024 1129.92 269.673 1123.49 269.673C1117.07 269.673 1112.46 271.891 1112.46 278.147C1112.46 293.187 1160 291.767 1160 322.29C1160 341.367 1139.8 354.322 1107.14 354.322C1089.51 354.322 1079.06 350.285 1068.02 343.719L1067.94 299.309Z" fill="#E30616"/>
<path d="M503.302 303.775C503.302 297.589 498.284 292.552 492.122 292.552H491.946C485.784 292.552 480.767 297.589 480.767 303.775V354.322H464.35C467.651 315.219 469.499 274.348 469.499 235.245H510.652V249.074C510.652 252.167 511.929 254.995 513.953 257.072C516.022 259.104 518.839 260.386 521.964 260.386C528.214 260.386 533.231 255.304 533.231 249.074V235.068H545.115C545.115 274.215 546.875 315.219 550.176 354.322H503.302V303.775Z" fill="#E30616"/>
<path d="M419.176 383.232C415 422.079 397.941 462.736 397.941 501.583H379.476V501.406H366.77V501.583H348.305C348.305 462.736 331.246 422.079 327.025 383.232H359.12L373.101 456.468L387.082 383.232H419.176Z" fill="#E30616"/>
<path d="M299.761 455.708C300.071 486.75 285.594 501.583 255.266 501.583C224.939 501.583 210.329 486.75 210.683 455.708C210.816 432.082 210.506 406.547 209.576 383.232H243.888V433.148C243.888 438.877 248.493 443.496 254.16 443.496H256.24C261.952 443.496 266.556 438.877 266.556 433.148V383.232H300.824C299.894 406.547 299.584 432.082 299.761 455.708Z" fill="#E30616"/>
<path d="M561.985 455.704C562.206 486.745 550.638 501.583 526.354 501.583C517.126 501.583 509.752 499.47 504.145 495.199C498.537 499.47 491.208 501.583 482.024 501.583C457.607 501.583 446.039 486.745 446.304 455.704C446.392 432.105 446.172 406.612 445.377 383.232H469.705V433.117C469.705 438.797 474.341 443.42 480.037 443.42H482.112C487.852 443.42 492.444 438.797 492.444 433.117V383.232H515.757V433.117C515.757 438.797 520.393 443.42 526.133 443.42H528.208C533.904 443.42 538.54 438.797 538.54 433.117V383.232H562.824C562.118 406.612 561.853 432.105 561.985 455.704Z" fill="#E30616"/>
<path d="M654.689 460.454C661.101 474.326 667.822 487.844 674.852 501.583H644.651V497.121C644.651 490.892 639.566 485.812 633.332 485.812H633.199C626.964 485.812 621.879 490.892 621.879 497.121V501.583H589.025C596.056 487.844 602.777 474.326 609.189 460.454C610.692 457.406 612.063 454.313 613.478 451.221L617.502 442.385L613.832 434.301C606.226 417.558 597.604 400.02 589.025 383.232H621.879V386.457C621.879 392.598 626.743 397.546 632.801 397.767H632.845C632.845 397.767 633.111 397.811 633.243 397.811H633.376C639.611 397.811 644.696 392.73 644.696 386.457V383.232H674.852C666.274 400.02 657.652 417.558 650.09 434.301L646.42 442.385L650.4 451.221C651.815 454.313 653.23 457.406 654.689 460.454Z" fill="#E30616"/>
<path d="M759.115 471.525C759.115 473.392 759.992 493.046 760.826 501.094V501.583H726.725C726.725 501.583 726.769 501.272 726.769 501.094C727.823 491.267 728.437 481.574 728.437 471.525V461.431C728.437 455.918 727.559 438.31 727.34 435.953C727.34 435.953 709.521 399.181 701.051 382.329H732.738V386.375C732.738 387.131 732.826 387.887 732.957 388.598C733.221 390.021 733.747 391.266 734.45 392.378C736.337 395.535 739.672 397.58 743.491 397.714H743.534C743.534 397.714 743.798 397.758 743.929 397.758H744.061C747.002 397.758 749.679 396.602 751.654 394.734C753.409 393.089 754.594 390.955 755.077 388.509C755.165 387.798 755.253 387.086 755.253 386.375V382.329H785.974C777.504 399.181 760.387 436.042 760.387 436.042C760.08 439.243 759.115 456.273 759.115 461.431V471.525Z" fill="#E30616"/>
<path d="M859.173 444.903H906.13V501.583H812.172V444.903C812.172 444.903 860.14 434.754 861.547 426.733H812.172V382.329H906.13V426.733C906.13 426.733 861.107 433.868 859.173 444.903Z" fill="#E30616"/>
<path d="M85.1479 383.32H181.127L183.379 442.232C171.547 442.232 162.011 442.32 150.664 442.32C150.179 470.764 150.488 473.446 151.768 501.583H114.374C115.655 473.446 115.964 470.676 115.478 442.188C98.6574 442.188 95.4786 442.188 84 442.188L85.1479 383.232V383.32Z" fill="#E30616"/>
<path d="M675.253 568.839C677.994 568.795 680.911 568.751 684.049 568.751V596.54C680.866 596.54 677.773 596.54 674.679 596.452C674.413 614.461 673.883 631.365 674.811 648.844H647.054C648.115 630.568 647.452 616.63 647.142 596.053C643.474 596.098 639.761 596.275 636.004 596.54V568.751C639.982 569.105 643.695 569.238 647.319 569.282C649.175 538.838 660.402 529.59 678.082 529.59C691.209 529.59 699.077 534.723 703.762 537.82L694.966 560.343C691.519 556.892 688.159 554.768 683.253 554.768C678.347 554.768 676.093 559.06 675.253 568.839Z" fill="#E30616"/>
<path d="M251.471 571.139C242.249 571.139 231.446 575.494 224.332 596.609C224.464 575.274 224.815 553.587 224.815 530.493H196.93C196.93 582.488 198.247 610.289 196.93 649.571H224.815C224.551 641.169 224.42 639.894 224.376 631.58C234.3 652.475 245.63 649.615 250.724 649.615C259.77 649.615 277.336 634.439 277.336 608.794C277.336 584.864 268.334 571.139 251.471 571.139ZM246.86 612.973C242.82 623.266 236.847 630.612 233.598 629.292C230.304 628.017 231.007 618.559 235.047 608.266C239.131 597.972 245.103 590.626 248.353 591.902C251.602 593.221 250.944 602.635 246.86 612.973Z" fill="#E30616"/>
<path d="M497.777 530.493H469.904C469.904 553.559 470.256 575.257 470.388 596.603C463.255 575.478 452.466 571.112 443.219 571.112C426.354 571.112 417.371 584.872 417.371 608.775C417.371 634.443 434.941 649.615 443.968 649.615C449.076 649.615 460.392 652.481 470.344 631.577C470.3 639.868 470.168 641.147 469.904 649.571H497.777C496.456 610.275 497.777 582.49 497.777 530.493ZM461.141 629.327C457.883 630.606 451.894 623.241 447.843 612.965C443.747 602.645 443.087 593.207 446.345 591.928C449.604 590.605 455.549 597.97 459.644 608.246C463.695 618.566 464.4 628.004 461.141 629.327Z" fill="#E30616"/>
<path d="M165.31 649.523C163.583 635.835 163.583 621.388 163.938 614.789C165.31 583.176 145.524 560.391 96.1278 574.525L96.2163 600.833C101.528 597.087 107.503 595.75 112.638 595.75C119.366 595.75 127.864 598.737 129.413 607.075C105.069 601.234 84 604.578 84 626.114C84 641.854 95.0655 649.657 106.618 649.657C109.584 649.657 130.21 651.842 135.034 634.72L134.68 649.523H165.31ZM129.147 627.497C119.321 632.847 109.982 634.675 108.3 631.554C106.618 628.433 113.213 621.522 123.039 616.171C132.865 610.82 142.205 608.992 143.887 612.158C145.569 615.279 138.929 622.146 129.147 627.497Z" fill="#E30616"/>
<path d="M384.845 642.49C375.795 647.064 364.216 649.747 352.504 649.747C325.221 649.747 308.053 635.145 308.053 611.437C308.053 587.73 324.423 571.148 352.904 571.148C364.216 571.148 375.795 573.743 384.801 578.229L374.819 600.969L372.69 605.807C368.786 604.488 363.24 603.696 357.074 603.696C345.185 603.696 335.558 606.731 335.558 610.47C335.558 614.208 345.229 617.199 357.074 617.199C363.019 617.199 368.342 616.451 372.246 615.22L374.509 620.102L384.845 642.49Z" fill="#E30616"/>
<path d="M574.485 597.253C578.601 586.869 579.265 577.328 575.99 576.042C572.715 574.71 566.695 582.121 562.579 592.549C559.703 599.782 558.508 606.66 559.171 610.52C559.171 610.52 559.437 611.763 559.57 612.029C560.898 616.6 564.305 621.969 571.21 621.969C575.503 621.969 580.593 621.303 586.922 618.375L596.039 641.494C588.471 646.464 577.583 649.747 566.651 649.747C542.265 649.747 526.686 629.158 526.686 607.592C526.686 586.026 541.07 569.341 566.74 569.341C586.213 569.341 594.844 578.837 599.801 591.661C603.74 601.823 603.474 610.52 603.474 610.52H566.917C569.484 607.547 572.272 602.844 574.485 597.253Z" fill="#E30616"/>
<path d="M991.056 649.747H963.049C964.387 623.511 963.049 604.961 963.049 570.245H991.056C991.056 598.424 989.851 623.511 991.056 649.747Z" fill="#E30616"/>
<path d="M990.151 550.821C990.151 558.571 983.898 564.824 976.148 564.824C968.398 564.824 962.145 558.571 962.145 550.821C962.145 543.07 968.398 536.817 976.148 536.817C983.898 536.817 990.151 543.07 990.151 550.821Z" fill="#E30616"/>
<path d="M1064.23 569.959V576.36L1063.97 597.065C1063.83 606.645 1063.7 616.004 1063.79 625.363V639.402C1063.88 644.081 1063.7 648.761 1063.04 653.396C1059.76 676.706 1049.19 684.078 1033.53 684.078C1020.61 684.078 1012.82 679.001 1008.22 675.999V653.661C1011.63 657.104 1023.66 660.195 1028.44 659.312C1035.61 657.987 1036.8 650.924 1036.8 631.102C1036.8 630.219 1036.67 614.15 1036.58 596.535C1031.98 596.535 1027.38 596.668 1022.69 597.065V569.341C1027.6 569.827 1032.02 570.047 1036.49 570.092C1044.45 570.268 1052.6 569.959 1064.23 569.959Z" fill="#E30616"/>
<path d="M1043.91 564.824C1052.14 564.824 1058.81 558.15 1058.81 549.917C1058.81 541.684 1052.14 535.01 1043.91 535.01C1035.67 535.01 1029 541.684 1029 549.917C1029 558.15 1035.67 564.824 1043.91 564.824Z" fill="#E30616"/>
<path d="M901.046 649.747C901.046 649.747 918.243 582.842 883.364 592.4C882.526 592.62 881.733 592.84 880.983 593.104C880.851 612.044 880.851 630.675 881.424 649.659H853.732C855.055 610.679 853.732 583.018 853.732 531.396H881.424C881.424 550.336 881.203 568.307 881.027 585.925C903.03 563.814 931.736 568.219 931.736 613.542C931.736 620.457 931.383 635.476 933.235 649.747H901.046Z" fill="#E30616"/>
<path d="M149.048 918.003V939.959C144.546 942.881 136.956 947.883 124.335 947.883C123.541 947.883 122.746 947.883 121.952 947.794C108.007 947.086 98.5629 939.428 95.5179 917.782C95.1207 914.771 94.9002 911.717 94.8119 908.663C94.7678 907.29 94.7678 905.918 94.7678 904.546C94.7678 901.359 94.7236 898.127 94.7236 894.896C91.1932 894.94 87.6187 895.073 84 895.338V867.539C87.7069 867.849 91.1491 868.026 94.503 868.07C94.3706 856.34 94.2382 843.502 94.2382 828.629H121.952C121.952 842.041 121.82 854.967 121.687 867.628C124.865 867.583 128.307 867.539 132.014 867.539V895.338C128.439 895.338 124.909 895.294 121.466 895.206C121.422 899.367 121.423 903.528 121.423 907.689C122.04 918.313 123.982 922.562 129.322 923.581C133.955 924.377 145.738 921.367 149.048 918.003Z" fill="#E30616"/>
<path d="M894.704 757.335C894.748 754.898 894.748 752.416 894.748 749.979C894.261 741.869 892.755 738.634 888.681 737.836C885.492 737.305 877.831 739.121 874.509 741.382C874.244 761.014 873.845 779.626 874.687 798.815H847.406C848.691 772.58 847.406 754.012 847.406 719.312H874.687C874.687 724.453 874.642 729.549 874.598 734.513C878.407 732.297 881.861 719.357 894.305 719.357C907.857 719.357 912.241 725.782 914.544 742.268C914.854 744.572 915.031 746.921 915.076 749.226C915.12 750.289 915.12 751.353 915.12 752.372C915.12 754.012 915.12 755.651 915.164 757.335H894.704Z" fill="#E30616"/>
<path d="M818.501 719.312H790.95C790.95 725.439 790.993 731.478 791.037 737.429C784.062 722.706 774.849 719.444 766.82 719.444C749.842 719.444 740.805 733.285 740.805 757.44C740.805 783.314 751.29 798.918 767.566 798.918C775.068 798.918 784.369 795.524 791.388 780.185C791.52 799.447 791.52 818.357 790.95 837.663H818.501C817.184 798.654 818.501 771.016 818.501 719.312ZM780.64 778.818C775.024 778.818 772.304 772.03 772.304 759.159C772.304 746.288 775.024 739.5 780.64 739.5C787.396 739.5 788.844 749.947 788.844 759.159C788.844 768.372 787.396 778.818 780.64 778.818Z" fill="#E30616"/>
<path d="M112.014 756.645C124.101 768.769 147.262 740.095 147.262 798.815H120.263C120.263 786.204 118.807 779.787 116.91 774.876C115.366 771.513 113.558 767.397 111.175 764.521C111.219 775.893 111.352 787.221 111.705 798.726H84C85.3235 759.432 84 731.599 84 679.561H111.705C111.705 701.907 111.352 722.926 111.263 743.591C118.322 733.28 129.925 719.43 148.144 719.43C148.144 731.997 148.1 744.166 148.1 756.733C128.733 752.928 118.013 753.945 112.014 756.645Z" fill="#E30616"/>
<path d="M232.163 768.935V790.891C227.637 793.813 220.005 798.815 207.314 798.815C206.516 798.815 205.717 798.815 204.918 798.726C190.897 798.018 181.401 790.36 178.34 768.714C177.94 765.704 177.718 762.649 177.63 759.595C177.585 758.223 177.585 756.85 177.585 755.478C177.541 733.787 177.053 711.123 177.053 679.561H204.918C204.918 707.36 204.386 733.123 204.386 758.621C205.007 769.245 206.959 773.495 212.328 774.513C216.987 775.309 228.835 772.299 232.163 768.935Z" fill="#E30616"/>
<path d="M564.246 719.312C542.966 719.312 525.783 733.755 525.783 760.168C525.783 786.58 542.966 798.815 564.246 798.815C585.525 798.815 602.576 786.492 602.576 760.168C602.576 733.844 585.305 719.312 564.246 719.312ZM567.241 764.673C557.461 769.973 548.165 771.784 546.49 768.692C544.816 765.601 551.381 758.754 561.162 753.454C570.898 748.154 580.238 746.343 581.913 749.435C583.587 752.527 576.978 759.373 567.241 764.673Z" fill="#E30616"/>
<path d="M945.927 762.05C950.173 766.097 960.242 767.076 965.671 767.076C970.749 767.076 976.616 765.608 976.616 761.428C976.616 748.798 945.883 762.317 945.883 741.193C945.883 728.829 960.155 719.312 979.199 719.312C989.793 719.312 998.943 722.203 1005.51 726.161V747.953C1001.26 743.906 997.323 742.883 990.8 742.305C986.772 741.949 976.484 743.772 976.484 747.953C976.484 757.959 1005.51 757.025 1005.51 777.304C1005.51 789.979 991.063 799.718 977.01 799.718C965.452 799.718 953.238 795.894 946.014 791.536V762.006L945.927 762.05Z" fill="#E30616"/>
<path d="M355.283 798.682C355.283 798.682 372.525 731.322 337.556 740.938C337.467 740.938 337.423 740.983 337.335 740.983C339.103 746.7 340.12 753.746 340.12 762.21C340.12 769.168 339.766 784.324 341.579 798.682H309.35C309.35 798.682 326.592 731.322 291.578 740.938C290.783 741.16 290.075 741.382 289.324 741.603C289.059 761.191 288.661 779.715 289.545 798.815H261.074C262.445 772.624 261.074 754.056 261.074 719.312H289.545C289.545 724.63 289.501 729.859 289.412 735C305.814 718.337 325.929 716.387 335.124 735.266C357.14 712.621 386.053 716.565 386.053 762.21C386.053 769.168 385.743 784.324 387.556 798.682H355.283Z" fill="#E30616"/>
<path d="M464.684 798.682C464.684 798.682 481.905 731.366 446.934 740.983C446.139 741.204 445.432 741.426 444.682 741.647C444.417 761.191 444.02 779.715 444.903 798.815H416.467C417.836 772.624 416.467 754.056 416.467 719.312H444.903C444.903 724.674 444.858 729.904 444.77 735.044C466.759 712.665 495.416 716.742 495.416 762.254C495.416 769.168 495.063 784.324 496.873 798.682H464.684Z" fill="#E30616"/>
<path d="M256.556 947.883H228.428C228.428 942.625 228.473 937.5 228.561 932.419C205.334 961.049 179.414 948.015 179.414 905.071C179.414 898.267 179.767 883.377 177.957 869.283H209.706C209.706 869.283 192.97 936.263 227.192 926.013C227.678 925.88 228.163 925.704 228.649 925.527C228.914 906.308 229.312 888.149 228.428 869.372H256.556C255.232 895.262 256.556 913.598 256.556 947.883Z" fill="#E30616"/>
<path d="M743.512 979.655C743.512 997.844 724.103 1010.22 692.685 1010.22C675.713 1010.22 665.61 1006.39 655.063 1000.13L654.975 957.721C661.223 963.579 680.543 964.944 688.475 964.944C695.964 964.944 717.81 962.786 717.81 956.84C717.81 949.926 696.008 947.68 696.008 947.68C678.726 946.402 661.887 931.252 661.887 905.002C661.887 898.131 662.242 883.333 660.425 869.283H692.242C692.242 869.283 679.657 918.039 698.18 925.658C716.702 918.083 704.118 869.283 704.118 869.283H735.934C734.118 883.333 734.472 898.175 734.472 905.002C734.472 924.161 725.521 937.418 713.911 943.628C721.4 952.216 743.512 955.387 743.512 979.611V979.655Z" fill="#E30616"/>
<path d="M359.551 869.283C356.175 895.085 342.452 922.081 342.452 947.883H327.617V947.794H317.402V947.883H302.568C302.568 922.081 288.844 895.085 285.469 869.283H311.273L322.51 930.711L333.747 869.283H359.551Z" fill="#E30616"/>
<path d="M510.424 869.283C507.11 895.055 493.461 922.067 493.461 947.883H478.662V947.794H468.547V947.883H453.792C453.792 938.451 451.981 928.842 449.463 919.188C446.945 928.842 445.134 938.451 445.134 947.883H430.336V947.794H420.22V947.883H405.466C405.466 922.067 391.816 895.055 388.459 869.283H414.124L425.3 930.746L436.476 869.283H462.451L473.627 930.746L484.803 869.283H510.424Z" fill="#E30616"/>
<path d="M609.341 920.586C616.083 929.802 623.179 938.798 630.582 947.883H597.794L583.339 926.379L571.705 947.883H540.238C547.642 938.798 554.693 929.802 561.436 920.586C563.023 918.567 564.477 916.504 565.975 914.442L566.328 913.959C568.62 910.755 568.62 906.411 566.328 903.207C558.307 892.06 549.273 880.43 540.238 869.283H573.071L587.438 890.7L599.072 869.283H630.582C621.504 880.43 612.47 892.06 604.493 903.207C603.303 904.831 602.73 906.718 602.73 908.605C602.73 910.492 603.303 912.379 604.449 913.959L604.845 914.442C606.3 916.504 607.798 918.567 609.341 920.586Z" fill="#E30616"/>
<path d="M781.919 922.51H827.533V947.883H765.195V922.51C765.195 922.51 804.748 900.192 805.677 894.878H765.195V869.283H827.533V894.878C827.533 894.878 783.202 915.247 781.919 922.51Z" fill="#E30616"/>
<path d="M685.545 715.831C677.427 715.831 668.113 719.137 661.06 733.903C661.104 727.952 661.149 721.869 661.149 715.698H633.293C633.293 767.403 634.624 795.04 633.293 834.049H661.149C660.572 814.699 660.572 795.745 660.705 776.483C667.802 791.91 677.206 795.304 684.835 795.304C701.247 795.304 711.892 779.7 711.892 753.826C711.892 729.671 702.711 715.831 685.545 715.831ZM671.572 775.204C664.742 775.204 663.278 764.67 663.278 755.545C663.278 746.421 664.742 735.886 671.572 735.886C677.25 735.886 680 742.719 680 755.545C680 768.372 677.25 775.204 671.572 775.204Z" fill="#E30616"/>
<path d="M824.823 570.86C807.685 570.86 797.138 571.74 785.185 571.3C782.241 570.596 779.165 570.245 776.001 570.245C754.161 570.245 736.495 587.923 736.495 609.778C736.495 626.489 746.866 640.781 761.543 646.542C774.726 652.61 795.556 649.444 795.556 659.25C795.556 665.275 773.716 667.43 766.201 667.43C758.291 667.43 738.912 665.979 732.672 660.13L732.804 702.83C743.35 709.162 753.458 712.988 770.464 712.988C801.928 712.988 821.351 700.543 821.351 682.162C821.351 657.887 799.423 654.589 791.821 646.014C805.751 639.901 815.507 625.961 815.507 609.778C815.507 605.82 814.935 601.951 813.793 598.345C817.396 598.433 821.044 598.477 824.823 598.477V570.86ZM786.284 598.037C785.8 601.511 784.702 605.733 782.988 610.086C782.505 611.317 781.977 612.505 781.45 613.604C779.297 618.221 776.836 622.003 774.551 624.246C772.705 626.137 770.947 626.973 769.673 626.445C768.179 625.829 767.476 623.499 767.651 620.068C767.739 617.518 768.267 614.396 769.277 611.01C769.761 609.207 770.42 607.316 771.167 605.425C772.881 601.115 774.946 597.289 777.012 594.431C779.78 590.473 782.593 588.318 784.482 589.066C786.372 589.814 786.899 593.288 786.284 598.037Z" fill="#E30616"/>
<path d="M911.552 288.289C911.552 248.637 890.644 226.937 865.113 226.937C839.583 226.937 818.498 248.637 818.498 288.289C818.498 327.941 839.319 346.377 865.113 346.377H865.201C868.723 346.333 871.672 349.156 871.672 352.684V361.55H905.962V340.555H887.695C901.912 332.351 911.552 315.15 911.552 288.289ZM865.025 294.42C851.468 294.42 840.375 290.935 840.375 286.657C840.375 282.379 851.468 278.85 865.025 278.85C878.583 278.85 889.675 282.335 889.675 286.657C889.675 290.98 878.583 294.42 865.025 294.42Z" fill="#E30616"/>
</svg>
