<svg width="1076" height="925" viewBox="0 0 1076 925" fill="none" xmlns="http://www.w3.org/2000/svg">
<path d="M982.04 206.888C981.993 207.238 981.85 207.588 981.707 208.025C981.565 208.549 981.374 209.03 981.137 209.598C981.47 208.724 981.755 207.806 982.04 206.888Z" fill="#E30616"/>
<path d="M908.661 74.1681C908.794 89.2855 909.146 104.27 909.763 119.254H874.543V83.2563C874.543 81.6603 874.234 80.1087 873.661 78.69C873.088 77.3157 872.207 76.0301 871.193 74.9661C870.884 74.6558 870.576 74.3898 870.267 74.1681C870.003 73.9021 869.738 73.6805 869.474 73.5032C868.063 72.5278 866.476 71.8629 864.713 71.6412C864.228 71.5525 863.699 71.5082 863.17 71.5082C862.729 71.5082 862.288 71.5082 861.892 71.5082C859.688 71.7742 857.616 72.7052 855.985 74.1238C854.618 75.2764 853.472 76.7837 852.811 78.5127C852.635 78.7787 852.547 79.0447 852.458 79.3107C852.062 80.552 851.797 81.8377 851.797 83.212V119.21H816.709C817.326 104.226 817.679 89.2412 817.811 74.1238V45.1304C817.679 29.9687 817.326 14.9844 816.709 0H851.797V35.4659C851.797 37.2392 852.15 38.9682 852.811 40.5198C853.384 41.8941 854.133 43.1354 855.103 44.1551C855.412 44.5097 855.765 44.8201 856.117 45.1304C858.057 46.7707 860.525 47.7903 863.17 47.7903C865.815 47.7903 868.239 46.815 870.179 45.1304C871.678 43.8891 872.868 42.2045 873.661 40.2982C873.661 40.2982 873.661 40.2834 873.661 40.2538C874.234 38.7465 874.543 37.1506 874.543 35.4659V0H909.763C909.146 14.9844 908.794 29.9687 908.661 45.1304V74.1238V74.1681Z" fill="#E30616"/>
<path d="M56.7071 119.254C56.7071 119.254 56.7071 117.008 56.7071 116.744C56.7071 114.894 56.2655 113.176 55.4705 111.678C53.6156 108.023 49.8175 105.512 45.4452 105.512C42.442 105.512 39.6596 106.701 37.6281 108.639C35.5082 110.665 34.1833 113.528 34.1833 116.744C34.1833 117.008 34.1833 119.21 34.1833 119.254H0C7.1988 80.2739 12.9843 39.84 16.9591 0.903564H76.2278C80.0701 39.884 85.8556 80.3179 93.0544 119.254H56.7071ZM45.401 29.5333C39.1738 29.5333 34.0949 34.5545 34.0949 40.809C34.0949 47.0634 39.1738 52.0847 45.401 52.0847C51.6282 52.0847 56.7071 47.0194 56.7071 40.809C56.7071 34.5985 51.6282 29.5333 45.401 29.5333Z" fill="#E30616"/>
<path d="M175.011 56.7302V55.1881C189.259 54.0424 210.035 47.9178 210.035 28.3983C210.035 11.3903 194.64 0.903564 166.762 0.903564L119.256 1.03575C121.02 39.4579 121.02 80.5678 119.256 118.99C119.256 118.99 162.043 119.254 165.748 119.254C199.007 119.254 216.827 106.653 216.827 88.0584C216.827 69.4642 197.551 57.0827 175.011 56.7302ZM160.587 24.8293C166.807 24.8293 171.835 29.8524 171.835 36.0651C171.835 42.2779 166.807 47.3009 160.587 47.3009C154.368 47.3009 149.339 42.2779 149.339 36.0651C149.339 29.8524 154.368 24.8293 160.587 24.8293ZM175.761 92.2883C162.351 92.2883 151.456 88.8515 151.456 84.6215C151.456 80.3916 162.351 76.9547 175.761 76.9547C189.17 76.9547 200.022 80.3916 200.022 84.6215C200.022 88.8515 189.126 92.2883 175.761 92.2883Z" fill="#E30616"/>
<path d="M332.466 108.351C321.951 115.193 308.445 119.254 294.807 119.254C263.043 119.254 243.025 97.3146 243.025 61.5578C243.025 25.8009 262.075 0.903564 295.247 0.903564C308.445 0.903564 321.907 4.78827 332.422 11.5865L320.764 45.7541L317.816 54.4064C313.9 53.5677 309.149 53.0379 304.046 53.0379C290.583 53.0379 279.629 56.5253 279.629 60.7632C279.629 65.001 290.583 68.4884 304.046 68.4884C309.105 68.4884 313.812 68.0029 317.684 67.12L320.368 74.5803L332.422 108.307L332.466 108.351Z" fill="#E30616"/>
<path d="M535.705 29.7029C534.059 29.7029 532.546 30.057 531.123 30.6767C529.877 31.2522 528.721 32.0047 527.787 32.9343C525.651 34.9706 524.317 37.8479 524.317 41.0351C524.317 44.3994 525.785 47.4095 528.143 49.4901C529.032 50.2868 530.011 50.9509 531.123 51.4378C532.546 52.0575 534.059 52.4116 535.705 52.4116H546.07C546.337 52.4116 546.915 52.4116 546.959 52.4116V65.2932C546.959 65.2932 546.337 65.2932 546.07 65.2932H535.705C534.059 65.2932 532.546 65.6474 531.123 66.2671C530.144 66.7098 529.21 67.2852 528.409 67.9492C525.918 70.0297 524.317 73.1727 524.317 76.6697C524.317 80.698 526.452 84.2836 529.655 86.2313C530.1 86.5412 530.634 86.8068 531.123 87.0281C532.546 87.6479 534.059 88.002 535.705 88.002H565.331C565.331 88.002 565.465 88.002 565.554 88.002L564.13 119.254H477.964C478.765 102.167 479.121 84.7705 479.254 67.3738L479.077 50.2868C479.077 33.5098 478.587 16.6 477.92 0H560.527L561.995 29.8799H561.817" fill="#E30616"/>
<path d="M660.112 50.5698V69.8388H627.899C627.899 86.4438 628.385 102.916 629.004 119.254H591.798C592.593 102.161 592.947 84.7566 593.08 67.3525L592.903 50.259C592.903 33.5208 592.417 16.605 591.754 0H673.501L674.87 27.6158H639.167C636.03 27.6158 633.202 28.9034 631.125 30.9901C630.595 31.5229 630.109 32.1001 629.711 32.7216C628.783 34.1424 628.164 35.7407 627.899 37.4723C627.811 37.9607 627.767 38.4934 627.767 39.0262C627.767 39.4702 627.767 39.9142 627.855 40.3138C628.341 44.7536 631.346 48.4387 635.411 49.815C636.604 50.259 637.886 50.481 639.211 50.481H660.112V50.5698Z" fill="#E30616"/>
<path d="M790.513 51.7011V119.254H770.843V119.122H736.928C736.443 119.166 735.958 119.166 735.473 119.166C713.95 119.166 701.072 96.044 701.072 64.6105C701.072 26.7223 720.125 0.903564 753.334 0.903564C766.477 0.903564 779.972 4.79407 790.513 11.6467L779.62 43.5664C775.386 37.377 768.285 33.2654 760.258 33.2654C747.38 33.2654 736.884 43.7875 736.884 56.6969C736.884 69.6062 747.38 80.1725 760.258 80.1725C768.682 80.1725 776.091 75.6631 780.193 68.8989H770.181V51.4801H778.826V51.7011H790.513Z" fill="#E30616"/>
<path d="M403.256 0.991592C399.691 0.991592 358.666 0.903564 358.666 0.903564C360.383 38.6226 360.383 81.5353 358.666 119.254C358.666 119.254 399.471 119.254 402.112 119.254C433.013 119.254 451.72 94.3871 451.72 59.7929C451.72 25.1987 433.981 1.03561 403.256 1.03561V0.991592ZM406.998 80.523C405.897 82.5916 404.577 83.7799 403.168 83.7799C402.596 83.7799 402.068 83.6039 401.54 83.2078C398.062 80.8751 395.465 71.1042 395.465 59.4408C395.465 48.4816 397.754 39.1948 400.923 36.1579C401.628 35.4537 402.376 35.1016 403.168 35.1016C404.665 35.1016 406.118 36.51 407.262 38.9308C409.419 43.288 410.828 50.8583 410.828 59.4408C410.828 68.0233 409.287 76.2977 406.954 80.479L406.998 80.523Z" fill="#E30616"/>
<path d="M935.967 0H973.008C973.008 42.2831 971.424 79.947 973.008 119.254H935.967C937.726 79.947 935.967 52.0544 935.967 0Z" fill="#E30616"/>
<path d="M1034 119.21C1016.23 119.21 1005.54 112.25 999.207 108.082L1011.13 77.5817C1015.78 82.2366 1020.3 85.1626 1027 85.1626C1036.35 85.1626 1038.43 73.6362 1038.43 46.3717C1038.43 43.8004 1038.43 39.4559 1038.43 34.269H1024.38V0H1075.97V48.7657C1076.81 103.472 1060.85 119.254 1034 119.254V119.21Z" fill="#E30616"/>
<path d="M93.9579 268.322H53.9692C53.9692 249.812 51.8388 240.335 49.0871 233.117C46.0691 226.607 42.3853 218.238 37.015 214.562C36.9707 238.21 36.9263 259.908 37.2813 268.101H0C1.7753 228.954 0 191.668 0 149.466H37.2813C37.2813 160.449 37.1926 175.903 37.1038 192.155C44.782 181.527 61.3367 149.068 93.514 149.068C93.514 165.63 93.4697 181.66 93.4697 198.178C60.0496 191.712 46.0247 195.964 40.0331 201.942C57.3423 224.969 93.9579 179.003 93.9579 268.322Z" fill="#E30616"/>
<path d="M354.105 267.419C350.765 228.541 349.008 187.946 349.008 149.068H238.185C238.185 187.946 236.428 228.541 233.088 267.419H264.814C264.77 267.198 264.77 263.588 264.77 263.368C264.77 261.034 265.473 258.877 266.704 257.072C267.583 255.751 268.725 254.65 270.087 253.814C271.801 252.757 273.822 252.14 275.932 252.14C277.689 252.14 279.315 252.537 280.809 253.241C281.908 253.77 282.918 254.474 283.797 255.355C285.863 257.38 287.137 260.198 287.137 263.324C287.137 263.588 287.137 267.154 287.093 267.375H301.858C301.814 267.11 301.814 263.544 301.814 263.324C301.814 259.714 303.527 256.499 306.164 254.474V254.122L306.208 254.43C308.054 252.977 310.426 252.14 312.975 252.14C314.381 252.14 315.787 252.405 317.018 252.889C320.489 254.21 323.082 257.248 323.873 260.946C324.049 261.695 324.136 262.487 324.136 263.324C324.136 263.588 324.136 267.154 324.092 267.419H354.149H354.105Z" fill="#E30616"/>
<path d="M120.16 149.112H147.357C146.214 177.653 145.907 182.698 146.39 211.682C163.35 211.372 190.239 210.576 206.89 208.452L205.309 268.322H120.204C121.962 228.984 121.962 188.406 120.204 149.068L120.16 149.112Z" fill="#E30616"/>
<path d="M538.992 148.165C513.198 148.165 492.377 169.959 492.377 209.908C492.377 249.857 513.198 268.322 538.992 268.322C564.787 268.322 585.431 249.679 585.431 209.908C585.431 170.137 564.479 148.165 538.992 148.165ZM538.904 216.122C525.347 216.122 514.254 212.571 514.254 208.266C514.254 203.96 525.347 200.409 538.904 200.409C552.462 200.409 563.554 203.916 563.554 208.266C563.554 212.616 552.506 216.122 538.904 216.122Z" fill="#E30616"/>
<path d="M658.473 149.068C653.312 149.068 644.237 149.244 611.629 149.244C612.296 165.981 612.786 183.424 612.786 200.117V216.986C612.786 233.988 612.296 250.681 611.629 267.419H649.531C647.752 252.575 647.752 243.326 647.752 241.432H673.242C707.541 241.432 708.297 209.19 708.297 185.185C708.297 158.141 686.899 149.068 658.473 149.068ZM657.094 202.187C650.821 202.187 645.661 197.078 645.661 190.867C645.661 184.657 650.821 179.547 657.094 179.547C663.366 179.547 668.527 184.613 668.527 190.867C668.527 197.122 663.411 202.187 657.094 202.187Z" fill="#E30616"/>
<path d="M946.107 220.918C946.107 220.918 946.195 220.741 946.195 220.653C946.504 219.768 946.768 218.839 947.032 217.91C949.851 207.734 949.983 195.877 949.983 185.568C949.983 158.226 928.667 149.068 900.393 149.068C895.284 149.068 886.212 149.245 853.754 149.245C854.415 166.146 854.899 183.799 854.899 200.611V217.644C854.899 234.855 854.415 251.446 853.754 268.302H886.432V264.099C886.432 257.861 891.497 252.773 897.707 252.773H897.883C904.136 252.773 909.201 257.861 909.201 264.099V268.302C918.45 268.302 952.273 268.347 952.229 268.302C941.659 242.907 943.333 230.032 946.107 220.918ZM899.028 202.602C892.774 202.602 887.665 197.47 887.665 191.187C887.665 184.905 892.774 179.817 899.028 179.817C905.282 179.817 910.346 184.905 910.346 191.187C910.346 197.47 905.282 202.602 899.028 202.602Z" fill="#E30616"/>
<path d="M983.936 213.309C990.405 219.431 1010.52 220.895 1018.76 220.895C1026.51 220.895 1030.23 218.677 1030.23 212.422C1030.23 197.515 983.848 211.49 983.848 181.987C983.848 163.354 1004.36 149.068 1033.47 149.068C1049.64 149.068 1065.94 153.371 1076 159.361V192.147C1069.49 186.024 1045.92 183.673 1039.49 183.673C1033.07 183.673 1028.46 185.891 1028.46 192.147C1028.46 207.187 1076 205.767 1076 236.29C1076 255.367 1055.8 268.322 1023.14 268.322C1005.51 268.322 995.056 264.285 984.025 257.719L983.936 213.309Z" fill="#E30616"/>
<path d="M419.302 217.775C419.302 211.589 414.284 206.552 408.122 206.552H407.946C401.784 206.552 396.767 211.589 396.767 217.775V268.322H380.35C383.651 229.219 385.499 188.348 385.499 149.245H426.652V163.074C426.652 166.167 427.929 168.995 429.953 171.072C432.022 173.104 434.839 174.386 437.964 174.386C444.214 174.386 449.231 169.304 449.231 163.074V149.068H461.115C461.115 188.215 462.875 229.219 466.176 268.322H419.302V217.775Z" fill="#E30616"/>
<path d="M335.176 297.232C331 336.079 313.941 376.736 313.941 415.583H295.476V415.406H282.77V415.583H264.305C264.305 376.736 247.246 336.079 243.025 297.232H275.12L289.101 370.468L303.082 297.232H335.176Z" fill="#E30616"/>
<path d="M215.761 369.708C216.071 400.75 201.594 415.583 171.266 415.583C140.939 415.583 126.329 400.75 126.683 369.708C126.816 346.082 126.506 320.547 125.576 297.232H159.888V347.148C159.888 352.877 164.493 357.496 170.16 357.496H172.24C177.952 357.496 182.556 352.877 182.556 347.148V297.232H216.824C215.894 320.547 215.584 346.082 215.761 369.708Z" fill="#E30616"/>
<path d="M477.985 369.704C478.206 400.745 466.638 415.583 442.354 415.583C433.126 415.583 425.752 413.47 420.145 409.199C414.537 413.47 407.208 415.583 398.024 415.583C373.607 415.583 362.039 400.745 362.304 369.704C362.392 346.105 362.172 320.612 361.377 297.232H385.705V347.117C385.705 352.797 390.341 357.42 396.037 357.42H398.112C403.852 357.42 408.444 352.797 408.444 347.117V297.232H431.757V347.117C431.757 352.797 436.393 357.42 442.133 357.42H444.208C449.904 357.42 454.54 352.797 454.54 347.117V297.232H478.824C478.118 320.612 477.853 346.105 477.985 369.704Z" fill="#E30616"/>
<path d="M570.689 374.454C577.101 388.326 583.822 401.844 590.852 415.583H560.651V411.121C560.651 404.892 555.566 399.812 549.332 399.812H549.199C542.964 399.812 537.879 404.892 537.879 411.121V415.583H505.025C512.056 401.844 518.777 388.326 525.189 374.454C526.692 371.406 528.063 368.313 529.478 365.221L533.502 356.385L529.832 348.301C522.226 331.558 513.604 314.02 505.025 297.232H537.879V300.457C537.879 306.598 542.743 311.546 548.801 311.767H548.845C548.845 311.767 549.111 311.811 549.243 311.811H549.376C555.611 311.811 560.696 306.73 560.696 300.457V297.232H590.852C582.274 314.02 573.652 331.558 566.09 348.301L562.42 356.385L566.4 365.221C567.815 368.313 569.23 371.406 570.689 374.454Z" fill="#E30616"/>
<path d="M675.115 385.525C675.115 387.392 675.992 407.046 676.826 415.094V415.583H642.725C642.725 415.583 642.769 415.272 642.769 415.094C643.823 405.267 644.437 395.574 644.437 385.525V375.431C644.437 369.918 643.559 352.31 643.34 349.953C643.34 349.953 625.521 313.181 617.051 296.329H648.738V300.375C648.738 301.131 648.826 301.887 648.957 302.598C649.221 304.021 649.747 305.266 650.45 306.378C652.337 309.535 655.672 311.58 659.491 311.714H659.534C659.534 311.714 659.798 311.758 659.929 311.758H660.061C663.002 311.758 665.679 310.602 667.654 308.734C669.409 307.089 670.594 304.955 671.077 302.509C671.165 301.798 671.253 301.086 671.253 300.375V296.329H701.974C693.504 313.181 676.387 350.042 676.387 350.042C676.08 353.243 675.115 370.273 675.115 375.431V385.525Z" fill="#E30616"/>
<path d="M775.173 358.903H822.13V415.583H728.172V358.903C728.172 358.903 776.14 348.754 777.547 340.733H728.172V296.329H822.13V340.733C822.13 340.733 777.107 347.868 775.173 358.903Z" fill="#E30616"/>
<path d="M1.14791 297.32H97.1269L99.3785 356.232C87.5467 356.232 78.0106 356.32 66.6644 356.32C66.1788 384.764 66.4878 387.446 67.7681 415.583H30.3743C31.6546 387.446 31.9636 384.676 31.478 356.188C14.6574 356.188 11.4786 356.188 0 356.188L1.14791 297.232V297.32Z" fill="#E30616"/>
<path d="M591.253 482.839C593.994 482.795 596.911 482.751 600.049 482.751V510.54C596.866 510.54 593.773 510.54 590.679 510.452C590.413 528.461 589.883 545.365 590.811 562.844H563.054C564.115 544.568 563.452 530.63 563.142 510.053C559.474 510.098 555.761 510.275 552.004 510.54V482.751C555.982 483.105 559.695 483.238 563.319 483.282C565.175 452.838 576.402 443.59 594.082 443.59C607.209 443.59 615.077 448.723 619.762 451.82L610.966 474.343C607.519 470.892 604.159 468.768 599.253 468.768C594.347 468.768 592.093 473.06 591.253 482.839Z" fill="#E30616"/>
<path d="M167.471 485.139C158.249 485.139 147.446 489.494 140.332 510.609C140.464 489.274 140.815 467.587 140.815 444.493H112.93C112.93 496.488 114.247 524.289 112.93 563.571H140.815C140.551 555.169 140.42 553.894 140.376 545.58C150.3 566.475 161.63 563.615 166.724 563.615C175.77 563.615 193.336 548.439 193.336 522.794C193.336 498.864 184.334 485.139 167.471 485.139ZM162.86 526.973C158.82 537.266 152.847 544.612 149.598 543.292C146.304 542.017 147.007 532.559 151.047 522.266C155.131 511.972 161.103 504.626 164.353 505.902C167.602 507.221 166.944 516.635 162.86 526.973Z" fill="#E30616"/>
<path d="M413.777 444.493H385.904C385.904 467.559 386.256 489.257 386.388 510.603C379.255 489.478 368.466 485.112 359.219 485.112C342.354 485.112 333.371 498.872 333.371 522.775C333.371 548.443 350.941 563.615 359.968 563.615C365.076 563.615 376.392 566.481 386.344 545.577C386.3 553.868 386.168 555.147 385.904 563.571H413.777C412.456 524.275 413.777 496.49 413.777 444.493ZM377.141 543.327C373.883 544.606 367.894 537.241 363.843 526.965C359.747 516.645 359.087 507.207 362.345 505.928C365.604 504.605 371.549 511.97 375.644 522.246C379.695 532.566 380.4 542.004 377.141 543.327Z" fill="#E30616"/>
<path d="M81.3097 563.523C79.5835 549.835 79.5835 535.388 79.9376 528.789C81.3097 497.176 61.5245 474.391 12.1278 488.525L12.2163 514.833C17.5278 511.087 23.5032 509.75 28.6377 509.75C35.3655 509.75 43.8638 512.737 45.413 521.075C21.0687 515.234 0 518.578 0 540.114C0 555.854 11.0655 563.657 22.6179 563.657C25.5835 563.657 46.2098 565.842 51.0343 548.72L50.6802 563.523H81.3097ZM45.1474 541.497C35.3212 546.847 25.9819 548.675 24.2999 545.554C22.618 542.433 29.213 535.522 39.0392 530.171C48.8654 524.82 58.2048 522.992 59.8868 526.158C61.5688 529.279 54.9293 536.146 45.1474 541.497Z" fill="#E30616"/>
<path d="M300.845 556.49C291.795 561.064 280.216 563.747 268.504 563.747C241.221 563.747 224.053 549.145 224.053 525.437C224.053 501.73 240.423 485.148 268.904 485.148C280.216 485.148 291.795 487.743 300.801 492.229L290.819 514.969L288.69 519.807C284.786 518.488 279.24 517.696 273.074 517.696C261.185 517.696 251.558 520.731 251.558 524.47C251.558 528.208 261.229 531.199 273.074 531.199C279.019 531.199 284.342 530.451 288.246 529.22L290.509 534.102L300.845 556.49Z" fill="#E30616"/>
<path d="M490.485 511.253C494.601 500.869 495.265 491.328 491.99 490.042C488.715 488.71 482.695 496.121 478.579 506.549C475.703 513.782 474.508 520.66 475.171 524.52C475.171 524.52 475.437 525.763 475.57 526.029C476.898 530.6 480.305 535.969 487.21 535.969C491.503 535.969 496.593 535.303 502.922 532.375L512.039 555.494C504.471 560.464 493.583 563.747 482.651 563.747C458.265 563.747 442.686 543.158 442.686 521.592C442.686 500.026 457.07 483.341 482.74 483.341C502.213 483.341 510.844 492.837 515.801 505.661C519.74 515.823 519.474 524.52 519.474 524.52H482.917C485.484 521.547 488.272 516.844 490.485 511.253Z" fill="#E30616"/>
<path d="M907.056 563.747H879.049C880.387 537.511 879.049 518.961 879.049 484.245H907.056C907.056 512.424 905.851 537.511 907.056 563.747Z" fill="#E30616"/>
<path d="M906.151 464.821C906.151 472.571 899.898 478.824 892.148 478.824C884.398 478.824 878.145 472.571 878.145 464.821C878.145 457.07 884.398 450.817 892.148 450.817C899.898 450.817 906.151 457.07 906.151 464.821Z" fill="#E30616"/>
<path d="M980.232 483.959V490.36L979.967 511.065C979.834 520.645 979.701 530.004 979.79 539.363V553.402C979.878 558.081 979.701 562.761 979.037 567.396C975.763 590.706 965.189 598.078 949.527 598.078C936.607 598.078 928.82 593.001 924.219 589.999V567.661C927.626 571.104 939.66 574.195 944.438 573.312C951.606 571.987 952.801 564.924 952.801 545.102C952.801 544.219 952.668 528.15 952.579 510.535C947.978 510.535 943.376 510.668 938.687 511.065V483.341C943.598 483.827 948.022 484.047 952.491 484.092C960.455 484.268 968.596 483.959 980.232 483.959Z" fill="#E30616"/>
<path d="M959.907 478.824C968.139 478.824 974.814 472.15 974.814 463.917C974.814 455.684 968.139 449.01 959.907 449.01C951.674 449.01 945 455.684 945 463.917C945 472.15 951.674 478.824 959.907 478.824Z" fill="#E30616"/>
<path d="M817.046 563.747C817.046 563.747 834.243 496.842 799.364 506.4C798.526 506.62 797.733 506.84 796.983 507.104C796.851 526.044 796.851 544.675 797.424 563.659H769.732C771.055 524.679 769.732 497.018 769.732 445.396H797.424C797.424 464.336 797.203 482.307 797.027 499.925C819.03 477.814 847.736 482.219 847.736 527.542C847.736 534.457 847.383 549.476 849.235 563.747H817.046Z" fill="#E30616"/>
<path d="M65.0478 832.003V853.959C60.5465 856.881 52.9562 861.883 40.335 861.883C39.5407 861.883 38.7464 861.883 37.9521 861.794C24.0069 861.086 14.5629 853.428 11.5179 831.782C11.1207 828.771 10.9002 825.717 10.8119 822.663C10.7678 821.29 10.7678 819.918 10.7678 818.546C10.7678 815.359 10.7236 812.127 10.7236 808.896C7.19318 808.94 3.61867 809.073 0 809.338V781.539C3.70693 781.849 7.1491 782.026 10.503 782.07C10.3706 770.34 10.2382 757.502 10.2382 742.629H37.9521C37.9521 756.041 37.8197 768.967 37.6873 781.628C40.8647 781.583 44.3067 781.539 48.0136 781.539V809.338C44.4391 809.338 40.9086 809.294 37.4664 809.206C37.4223 813.367 37.4225 817.528 37.4225 821.689C38.0404 832.313 39.982 836.562 45.3217 837.581C49.9554 838.377 61.738 835.367 65.0478 832.003Z" fill="#E30616"/>
<path d="M810.704 671.335C810.748 668.898 810.748 666.416 810.748 663.979C810.261 655.869 808.755 652.634 804.681 651.836C801.492 651.305 793.831 653.121 790.509 655.382C790.244 675.014 789.845 693.626 790.687 712.815H763.406C764.691 686.58 763.406 668.012 763.406 633.312H790.687C790.687 638.453 790.642 643.549 790.598 648.513C794.407 646.297 797.861 633.357 810.305 633.357C823.857 633.357 828.241 639.782 830.544 656.268C830.854 658.572 831.031 660.921 831.076 663.226C831.12 664.289 831.12 665.353 831.12 666.372C831.12 668.012 831.12 669.651 831.164 671.335H810.704Z" fill="#E30616"/>
<path d="M734.501 633.312H706.95C706.95 639.439 706.993 645.478 707.037 651.429C700.062 636.706 690.849 633.444 682.82 633.444C665.842 633.444 656.805 647.285 656.805 671.44C656.805 697.314 667.29 712.918 683.566 712.918C691.068 712.918 700.369 709.524 707.388 694.185C707.52 713.447 707.52 732.357 706.95 751.663H734.501C733.184 712.654 734.501 685.016 734.501 633.312ZM696.64 692.818C691.024 692.818 688.304 686.03 688.304 673.159C688.304 660.288 691.024 653.5 696.64 653.5C703.396 653.5 704.844 663.947 704.844 673.159C704.844 682.372 703.396 692.818 696.64 692.818Z" fill="#E30616"/>
<path d="M28.0135 670.645C40.1012 682.769 63.2619 654.095 63.2619 712.815H36.2631C36.2631 700.204 34.8073 693.787 32.9103 688.876C31.3662 685.513 29.5576 681.397 27.1753 678.521C27.2194 689.893 27.3517 701.221 27.7047 712.726H0C1.32347 673.432 0 645.599 0 593.561H27.7047C27.7047 615.907 27.3517 636.926 27.2635 657.591C34.322 647.28 45.9245 633.43 64.1443 633.43C64.1443 645.997 64.1002 658.166 64.1002 670.733C44.7333 666.928 34.0133 667.945 28.0135 670.645Z" fill="#E30616"/>
<path d="M148.163 682.935V704.891C143.637 707.813 136.005 712.815 123.314 712.815C122.516 712.815 121.717 712.815 120.918 712.726C106.897 712.018 97.4012 704.36 94.3396 682.714C93.9402 679.704 93.7183 676.649 93.6296 673.595C93.5852 672.223 93.5852 670.85 93.5852 669.478C93.5408 647.787 93.0527 625.123 93.0527 593.561H120.918C120.918 621.36 120.386 647.123 120.386 672.621C121.007 683.245 122.959 687.495 128.328 688.513C132.987 689.309 144.835 686.299 148.163 682.935Z" fill="#E30616"/>
<path d="M480.246 633.312C458.966 633.312 441.783 647.755 441.783 674.168C441.783 700.58 458.966 712.815 480.246 712.815C501.525 712.815 518.576 700.492 518.576 674.168C518.576 647.844 501.305 633.312 480.246 633.312ZM483.241 678.673C473.461 683.973 464.165 685.784 462.49 682.692C460.816 679.601 467.381 672.754 477.162 667.454C486.898 662.154 496.238 660.343 497.913 663.435C499.587 666.527 492.978 673.373 483.241 678.673Z" fill="#E30616"/>
<path d="M861.927 676.05C866.173 680.097 876.242 681.076 881.671 681.076C886.749 681.076 892.616 679.608 892.616 675.428C892.616 662.798 861.883 676.317 861.883 655.193C861.883 642.829 876.155 633.312 895.199 633.312C905.793 633.312 914.943 636.203 921.51 640.161V661.953C917.263 657.906 913.323 656.883 906.8 656.305C902.772 655.949 892.484 657.772 892.484 661.953C892.484 671.959 921.51 671.025 921.51 691.304C921.51 703.979 907.063 713.718 893.01 713.718C881.452 713.718 869.238 709.894 862.014 705.536V676.006L861.927 676.05Z" fill="#E30616"/>
<path d="M271.283 712.682C271.283 712.682 288.525 645.322 253.556 654.938C253.467 654.938 253.423 654.983 253.335 654.983C255.103 660.7 256.12 667.746 256.12 676.21C256.12 683.168 255.766 698.324 257.579 712.682H225.35C225.35 712.682 242.592 645.322 207.578 654.938C206.783 655.16 206.075 655.382 205.324 655.603C205.059 675.191 204.661 693.715 205.545 712.815H177.074C178.445 686.624 177.074 668.056 177.074 633.312H205.545C205.545 638.63 205.501 643.859 205.412 649C221.814 632.337 241.929 630.387 251.124 649.266C273.14 626.621 302.053 630.565 302.053 676.21C302.053 683.168 301.743 698.324 303.556 712.682H271.283Z" fill="#E30616"/>
<path d="M380.684 712.682C380.684 712.682 397.905 645.366 362.934 654.983C362.139 655.204 361.432 655.426 360.682 655.647C360.417 675.191 360.02 693.715 360.903 712.815H332.467C333.836 686.624 332.467 668.056 332.467 633.312H360.903C360.903 638.674 360.858 643.904 360.77 649.044C382.759 626.665 411.416 630.742 411.416 676.254C411.416 683.168 411.063 698.324 412.873 712.682H380.684Z" fill="#E30616"/>
<path d="M172.556 861.883H144.428C144.428 856.625 144.473 851.5 144.561 846.419C121.334 875.049 95.4143 862.015 95.4143 819.071C95.4143 812.267 95.7675 797.377 93.957 783.283H125.706C125.706 783.283 108.97 850.263 143.192 840.013C143.678 839.88 144.163 839.704 144.649 839.527C144.914 820.308 145.312 802.149 144.428 783.372H172.556C171.232 809.262 172.556 827.598 172.556 861.883Z" fill="#E30616"/>
<path d="M659.512 893.655C659.512 911.844 640.103 924.22 608.685 924.22C591.713 924.22 581.61 920.389 571.063 914.134L570.975 871.721C577.223 877.579 596.543 878.944 604.475 878.944C611.964 878.944 633.81 876.786 633.81 870.84C633.81 863.926 612.008 861.68 612.008 861.68C594.726 860.402 577.887 845.252 577.887 819.002C577.887 812.131 578.242 797.333 576.425 783.283H608.242C608.242 783.283 595.657 832.039 614.18 839.658C632.702 832.083 620.118 783.283 620.118 783.283H651.934C650.118 797.333 650.472 812.175 650.472 819.002C650.472 838.161 641.521 851.418 629.911 857.628C637.4 866.216 659.512 869.387 659.512 893.611V893.655Z" fill="#E30616"/>
<path d="M275.551 783.283C272.175 809.085 258.452 836.081 258.452 861.883H243.617V861.794H233.402V861.883H218.568C218.568 836.081 204.844 809.085 201.469 783.283H227.273L238.51 844.711L249.747 783.283H275.551Z" fill="#E30616"/>
<path d="M426.424 783.283C423.11 809.055 409.461 836.067 409.461 861.883H394.662V861.794H384.547V861.883H369.792C369.792 852.451 367.981 842.842 365.463 833.188C362.945 842.842 361.134 852.451 361.134 861.883H346.336V861.794H336.22V861.883H321.466C321.466 836.067 307.816 809.055 304.459 783.283H330.124L341.3 844.746L352.476 783.283H378.451L389.627 844.746L400.803 783.283H426.424Z" fill="#E30616"/>
<path d="M525.341 834.586C532.083 843.802 539.179 852.798 546.582 861.883H513.794L499.339 840.379L487.705 861.883H456.238C463.642 852.798 470.693 843.802 477.436 834.586C479.023 832.567 480.477 830.504 481.975 828.442L482.328 827.959C484.62 824.755 484.62 820.411 482.328 817.207C474.307 806.06 465.273 794.43 456.238 783.283H489.071L503.438 804.7L515.072 783.283H546.582C537.504 794.43 528.47 806.06 520.493 817.207C519.303 818.831 518.73 820.718 518.73 822.605C518.73 824.492 519.303 826.379 520.449 827.959L520.845 828.442C522.3 830.504 523.798 832.567 525.341 834.586Z" fill="#E30616"/>
<path d="M697.919 836.51H743.533V861.883H681.195V836.51C681.195 836.51 720.748 814.192 721.677 808.878H681.195V783.283H743.533V808.878C743.533 808.878 699.202 829.247 697.919 836.51Z" fill="#E30616"/>
<path d="M601.545 629.831C593.427 629.831 584.113 633.137 577.06 647.903C577.104 641.952 577.149 635.869 577.149 629.698H549.293C549.293 681.403 550.624 709.04 549.293 748.049H577.149C576.572 728.699 576.572 709.745 576.705 690.483C583.802 705.91 593.206 709.304 600.835 709.304C617.247 709.304 627.892 693.7 627.892 667.826C627.892 643.671 618.711 629.831 601.545 629.831ZM587.572 689.204C580.742 689.204 579.278 678.67 579.278 669.545C579.278 660.421 580.742 649.886 587.572 649.886C593.25 649.886 596 656.719 596 669.545C596 682.372 593.25 689.204 587.572 689.204Z" fill="#E30616"/>
<path d="M740.823 484.86C723.685 484.86 713.138 485.74 701.185 485.3C698.241 484.596 695.165 484.245 692.001 484.245C670.161 484.245 652.495 501.923 652.495 523.778C652.495 540.489 662.866 554.781 677.543 560.542C690.726 566.61 711.556 563.444 711.556 573.25C711.556 579.275 689.716 581.43 682.201 581.43C674.291 581.43 654.912 579.979 648.672 574.13L648.804 616.83C659.35 623.162 669.458 626.988 686.464 626.988C717.928 626.988 737.351 614.543 737.351 596.162C737.351 571.887 715.423 568.589 707.821 560.014C721.751 553.901 731.507 539.961 731.507 523.778C731.507 519.82 730.935 515.951 729.793 512.345C733.396 512.433 737.044 512.477 740.823 512.477V484.86ZM702.284 512.037C701.8 515.511 700.702 519.733 698.988 524.086C698.505 525.317 697.977 526.505 697.45 527.604C695.297 532.221 692.836 536.003 690.551 538.246C688.705 540.137 686.947 540.973 685.673 540.445C684.179 539.829 683.476 537.499 683.651 534.068C683.739 531.518 684.267 528.396 685.277 525.01C685.761 523.207 686.42 521.316 687.167 519.425C688.881 515.115 690.946 511.289 693.012 508.431C695.78 504.473 698.593 502.318 700.482 503.066C702.372 503.814 702.899 507.288 702.284 512.037Z" fill="#E30616"/>
<path d="M827.552 202.289C827.552 162.637 806.644 140.937 781.113 140.937C755.583 140.937 734.498 162.637 734.498 202.289C734.498 241.941 755.319 260.377 781.113 260.377H781.201C784.723 260.333 787.672 263.156 787.672 266.684V275.55H821.962V254.555H803.695C817.912 246.351 827.552 229.15 827.552 202.289ZM781.025 208.42C767.468 208.42 756.375 204.935 756.375 200.657C756.375 196.379 767.468 192.85 781.025 192.85C794.583 192.85 805.675 196.335 805.675 200.657C805.675 204.98 794.583 208.42 781.025 208.42Z" fill="#E30616"/>
</svg>
