<svg width="92" height="92" viewBox="0 0 92 92" fill="none" xmlns="http://www.w3.org/2000/svg">
<path d="M73.7039 0H17.6675C7.92362 0 0 7.92362 0 17.6675V36.3344V73.7396C0 83.4835 7.92362 91.4071 17.6675 91.4071H73.7039C83.4478 91.4071 91.3714 83.4835 91.3714 73.7396V36.2987V17.6318C91.3357 7.92361 83.4121 0 73.7039 0ZM78.7722 10.5291H80.8066V12.5279V26.0194L65.352 26.0551L65.3163 10.5648L78.7722 10.5291ZM32.6225 36.2987C35.5492 32.2655 40.2962 29.5886 45.65 29.5886C51.0038 29.5886 55.7508 32.2298 58.6776 36.2987C60.605 38.9399 61.7114 42.1879 61.7114 45.6857C61.7114 54.5373 54.5016 61.7828 45.6143 61.7828C36.727 61.7828 29.5886 54.5373 29.5886 45.6857C29.5886 42.1879 30.7308 38.9399 32.6225 36.2987ZM82.4484 73.7039C82.4484 78.5223 78.5223 82.4484 73.7039 82.4484H17.6675C12.8491 82.4484 8.92299 78.5223 8.92299 73.7039V36.2987H22.5573C21.3795 39.1898 20.7013 42.3664 20.7013 45.6857C20.7013 59.4628 31.9086 70.6701 45.6857 70.6701C59.4628 70.6701 70.6701 59.4628 70.6701 45.6857C70.6701 42.3664 69.9919 39.1898 68.8141 36.2987H82.4484V73.7039Z" fill="black"/>
</svg>
