<svg width="22" height="22" viewBox="0 0 22 22" fill="none" xmlns="http://www.w3.org/2000/svg">
<g clip-path="url(#clip0_273_73)">
<path d="M19.5941 0H1.94873C0.872486 0 0 0.872486 0 1.94873V19.5941C0 20.6704 0.872486 21.5429 1.94873 21.5429H19.5941C20.6704 21.5429 21.5429 20.6704 21.5429 19.5941V1.94873C21.5429 0.872486 20.6704 0 19.5941 0ZM6.66627 18.6015C6.66627 18.9147 6.41238 19.1686 6.09917 19.1686H3.68513C3.37191 19.1686 3.11802 18.9147 3.11802 18.6015V8.48196C3.11802 8.16875 3.37191 7.91486 3.68513 7.91486H6.09917C6.41238 7.91486 6.66627 8.16875 6.66627 8.48196V18.6015ZM4.89215 6.96094C3.62557 6.96094 2.59879 5.93415 2.59879 4.66758C2.59879 3.40101 3.62557 2.37423 4.89215 2.37423C6.15872 2.37423 7.1855 3.40101 7.1855 4.66758C7.1855 5.93415 6.15878 6.96094 4.89215 6.96094ZM19.282 18.6472C19.282 18.9352 19.0485 19.1686 18.7606 19.1686H16.1701C15.8822 19.1686 15.6487 18.9352 15.6487 18.6472V13.9006C15.6487 13.1925 15.8564 10.7977 13.7982 10.7977C12.2017 10.7977 11.8779 12.4368 11.8129 13.1724V18.6472C11.8129 18.9352 11.5795 19.1686 11.2914 19.1686H8.78605C8.49809 19.1686 8.26462 18.9352 8.26462 18.6472V8.43628C8.26462 8.14833 8.49809 7.91486 8.78605 7.91486H11.2914C11.5794 7.91486 11.8129 8.14833 11.8129 8.43628V9.31915C12.4049 8.43076 13.2846 7.74505 15.1578 7.74505C19.3057 7.74505 19.282 11.6203 19.282 13.7495V18.6472Z" fill="white"/>
</g>
<defs>
<clipPath id="clip0_273_73">
<rect width="21.5429" height="21.5429" fill="white"/>
</clipPath>
</defs>
</svg>
