<svg width="92" height="92" viewBox="0 0 92 92" fill="none" xmlns="http://www.w3.org/2000/svg">
<g clip-path="url(#clip0_47_8)">
<path d="M83.1061 0H8.26529C3.70054 0 0 3.70054 0 8.26529V83.1059C0 87.6709 3.70054 91.3714 8.26529 91.3714H83.1059C87.6709 91.3714 91.3714 87.6709 91.3714 83.1059V8.26529C91.3714 3.70054 87.6709 0 83.1061 0ZM28.2742 78.8961C28.2742 80.2246 27.1974 81.3014 25.8689 81.3014H15.63C14.3015 81.3014 13.2247 80.2246 13.2247 78.8961V35.9752C13.2247 34.6468 14.3015 33.5699 15.63 33.5699H25.8689C27.1974 33.5699 28.2742 34.6468 28.2742 35.9752V78.8961ZM20.7494 29.524C15.3774 29.524 11.0225 25.169 11.0225 19.797C11.0225 14.425 15.3774 10.07 20.7494 10.07C26.1215 10.07 30.4764 14.425 30.4764 19.797C30.4764 25.169 26.1217 29.524 20.7494 29.524ZM81.7822 79.0899C81.7822 80.3112 80.792 81.3014 79.5706 81.3014H68.5836C67.3623 81.3014 66.372 80.3112 66.372 79.0899V58.9575C66.372 55.9542 67.253 45.7969 58.5234 45.7969C51.7521 45.7969 50.3787 52.7493 50.1029 55.8693V79.0899C50.1029 80.3112 49.1129 81.3014 47.8913 81.3014H37.2649C36.0436 81.3014 35.0534 80.3112 35.0534 79.0899V35.7815C35.0534 34.5602 36.0436 33.5699 37.2649 33.5699H47.8913C49.1126 33.5699 50.1029 34.5602 50.1029 35.7815V39.526C52.6137 35.758 56.3451 32.8497 64.2898 32.8497C81.8829 32.8497 81.7822 49.286 81.7822 58.317V79.0899Z" fill="black"/>
</g>
<defs>
<clipPath id="clip0_47_8">
<rect width="91.3714" height="91.3714" fill="white"/>
</clipPath>
</defs>
</svg>
