<svg width="22" height="22" viewBox="0 0 22 22" fill="none" xmlns="http://www.w3.org/2000/svg">
<g clip-path="url(#clip0_273_75)">
<path d="M17.3773 0H4.16551C1.86817 0 0 1.86817 0 4.16551V8.56665V17.3858C0 19.6831 1.86817 21.5513 4.16551 21.5513H17.3773C19.6747 21.5513 21.5429 19.6831 21.5429 17.3858V8.55824V4.1571C21.5344 1.86817 19.6663 0 17.3773 0ZM18.5723 2.48248H19.052V2.95373V6.13466L15.4082 6.14308L15.3998 2.49089L18.5723 2.48248ZM7.69147 8.55824C8.38152 7.60732 9.50074 6.97618 10.763 6.97618C12.0253 6.97618 13.1445 7.59891 13.8346 8.55824C14.289 9.18096 14.5498 9.94674 14.5498 10.7714C14.5498 12.8584 12.85 14.5667 10.7546 14.5667C8.65922 14.5667 6.97618 12.8584 6.97618 10.7714C6.97618 9.94674 7.24547 9.18096 7.69147 8.55824ZM19.4391 17.3773C19.4391 18.5134 18.5134 19.4391 17.3773 19.4391H4.16551C3.02946 19.4391 2.10379 18.5134 2.10379 17.3773V8.55824H5.31839C5.04069 9.23987 4.8808 9.98882 4.8808 10.7714C4.8808 14.0197 7.52317 16.6621 10.7714 16.6621C14.0197 16.6621 16.6621 14.0197 16.6621 10.7714C16.6621 9.98882 16.5022 9.23987 16.2245 8.55824H19.4391V17.3773Z" fill="black"/>
</g>
<defs>
<clipPath id="clip0_273_75">
<rect width="21.5429" height="21.5429" fill="white"/>
</clipPath>
</defs>
</svg>
