<svg width="1441" height="290" viewBox="0 0 1441 290" fill="none" xmlns="http://www.w3.org/2000/svg">
<path d="M124.04 285.735H-1.92672e-05V4.43002H160.809L164.796 85.056H174.099L177.2 4.43002H340.224V285.735H216.184L218.399 190.047H207.324L203.78 285.735H136.444L132.9 190.047H121.825L124.04 285.735ZM350.347 144.861C350.347 58.033 394.647 2.84314e-05 489.006 2.84314e-05C572.29 2.84314e-05 627.665 46.515 627.665 144.861C627.665 231.689 583.365 289.722 489.006 289.722C405.722 289.722 350.347 243.207 350.347 144.861ZM483.247 116.066V173.656H494.765V116.066H483.247ZM634.577 144.861C634.577 58.033 678.877 2.84314e-05 773.236 2.84314e-05C856.52 2.84314e-05 911.895 46.515 911.895 144.861C911.895 231.689 867.595 289.722 773.236 289.722C689.952 289.722 634.577 243.207 634.577 144.861ZM767.477 116.066V173.656H778.995V116.066H767.477ZM1051.26 285.735H921.907V4.43002H1051.26C1150.05 4.43002 1181.51 60.691 1181.51 144.861C1181.51 252.067 1129.23 285.735 1051.26 285.735ZM1057.47 173.656V116.066H1045.95V173.656H1057.47ZM1197.94 285.735V174.099H1245.79V162.581H1197.94L1175.35 19.049V4.43002H1302.05V92.144H1313.56V4.43002H1440.26V19.049L1417.67 162.581H1369.83V174.099H1417.67V285.735H1197.94Z" fill="white"/>
</svg>
