<svg width="1432" height="282" viewBox="0 0 1432 282" fill="none" xmlns="http://www.w3.org/2000/svg">
<path d="M1189.6 282V170.485H1237.46V158.98H1189.6L1167 15.6031V1H1293.74V88.6189H1305.26V1H1432V15.6031L1409.4 158.98H1361.54V170.485H1409.4V282H1189.6Z" fill="white"/>
<path d="M1043.06 282H914V1H1043.06C1141.62 1 1173 57.2 1173 141.279C1173 248.369 1120.85 282 1043.06 282ZM1049.25 170.043V112.515H1037.75V170.043H1049.25Z" fill="white"/>
<path d="M630 140.5C630 56.2859 673.77 0 767 0C849.288 0 904 45.1147 904 140.5C904 224.714 860.23 281 767 281C684.712 281 630 235.885 630 140.5ZM761.31 112.572V168.428H772.69V112.572H761.31Z" fill="white"/>
<path d="M350 140.5C350 56.2859 393.77 0 487 0C569.288 0 624 45.1147 624 140.5C624 224.714 580.23 281 487 281C404.712 281 350 235.885 350 140.5ZM481.31 112.572V168.428H492.69V112.572H481.31Z" fill="white"/>
<path d="M123.958 282H0V1H160.703L164.687 81.5386H173.984L177.083 1H340V282H216.042L218.255 186.416H207.187L203.646 282H136.354L132.813 186.416H121.745L123.958 282Z" fill="white"/>
</svg>
