<svg width="1440" height="496" viewBox="0 0 1440 496" fill="none" xmlns="http://www.w3.org/2000/svg">
<rect width="1440" height="167" fill="white"/>
<rect y="162" width="1440" height="167" fill="#ED6C0C"/>
<rect y="329" width="1440" height="167" fill="#1E3F3A"/>
<path d="M655.452 67.3C654.336 67.3 653.288 67.5249 652.33 67.9212C651.474 68.2853 650.697 68.778 650.043 69.3992C648.59 70.7272 647.688 72.6015 647.688 74.6792C647.688 76.8748 648.691 78.8348 650.291 80.1735C650.888 80.6983 651.576 81.1267 652.33 81.4373C653.288 81.8336 654.336 82.0585 655.452 82.0585H662.516C662.686 82.0585 663.08 82.0371 663.114 82.0371V90.4231C663.114 90.4231 662.686 90.4017 662.516 90.4017H655.452C654.336 90.4017 653.288 90.6266 652.33 91.0229C651.654 91.3013 651.035 91.6762 650.483 92.1046C648.77 93.4648 647.688 95.4997 647.688 97.781C647.688 100.416 649.142 102.729 651.328 104.014C651.643 104.218 651.981 104.389 652.33 104.539C653.288 104.935 654.336 105.16 655.452 105.16H675.643C675.643 105.16 675.745 105.16 675.79 105.15L674.821 125.499H616.071C616.623 114.382 616.849 103.04 616.961 91.7083L616.849 80.5805C616.849 69.6562 616.511 58.6355 616.071 47.829H672.398L673.401 67.3H673.288M703.565 67.3H704.579C705.57 67.3 706.517 67.4713 707.384 67.8033C708.342 68.1461 709.21 68.6816 709.931 69.3456C711.418 70.6844 712.342 72.5801 712.342 74.6792C712.342 76.8962 711.317 78.8776 709.694 80.2271C709.018 80.7947 708.241 81.2445 707.384 81.5551C706.517 81.8871 705.57 82.0585 704.579 82.0585H695.621V90.4124C695.745 90.4017 704.41 90.4017 704.579 90.4017C705.57 90.4017 706.517 90.5731 707.384 90.9051C708.151 91.1835 708.86 91.5798 709.48 92.0618C711.227 93.422 712.331 95.4783 712.331 97.781C712.331 100.448 710.844 102.783 708.624 104.068C708.229 104.303 707.813 104.507 707.373 104.657C706.506 104.989 705.559 105.16 704.567 105.16C704.398 105.16 683.181 105.16 683.08 105.139H683.001C683.001 105.139 682.956 105.16 682.934 105.139L683.903 125.488H742.652C742.1 114.371 741.886 103.029 741.773 91.6976L741.886 80.5698C741.886 69.6455 742.213 58.6248 742.652 47.8183H686.336L685.322 67.2893H686.404M607.034 125.499C604.725 99.8909 603.508 73.1477 603.508 47.5398H526.538C526.538 73.1477 525.321 99.8909 523 125.499H545.017C544.983 125.349 544.983 122.982 544.983 122.821C544.983 121.279 545.479 119.855 546.324 118.687C546.933 117.82 547.733 117.081 548.679 116.545C549.862 115.838 551.259 115.442 552.747 115.442C553.952 115.442 555.102 115.71 556.127 116.181C556.904 116.534 557.603 117.006 558.2 117.573C559.631 118.912 560.51 120.765 560.51 122.821C560.51 122.982 560.51 125.338 560.476 125.499H570.719C570.685 125.338 570.685 122.982 570.685 122.821C570.685 120.433 571.868 118.312 573.716 116.984L573.761 116.759V116.952C575.057 115.999 576.679 115.442 578.448 115.442C579.44 115.442 580.398 115.613 581.265 115.945C583.665 116.824 585.479 118.805 586.031 121.247C586.155 121.75 586.212 122.275 586.212 122.821C586.212 122.982 586.212 125.349 586.178 125.509H607.034V125.499ZM790.844 125.499C790.844 125.499 790.867 124.021 790.867 123.86C790.867 122.65 790.562 121.515 790.022 120.519C788.748 118.119 786.134 116.481 783.103 116.481C781.019 116.481 779.115 117.263 777.729 118.548C776.253 119.876 775.34 121.772 775.34 123.86C775.34 124.021 775.362 125.467 775.362 125.499H751.745C756.714 99.8909 760.692 73.3298 763.452 47.7219H804.309C806.968 73.3298 810.946 99.8909 815.915 125.499H790.844ZM783.036 66.5503C778.731 66.5503 775.238 69.8597 775.238 73.951C775.238 78.0422 778.731 81.3624 783.036 81.3624C787.34 81.3624 790.822 78.0422 790.822 73.951C790.822 69.8597 787.329 66.5503 783.036 66.5503ZM850.033 104.282C849.695 85.3894 849.921 66.3896 850.698 47.8183H825.075C826.292 73.4262 826.292 99.8801 825.075 125.488H883.825L884.929 102.183C873.448 103.554 861.74 104.079 850.033 104.282Z" fill="#ED6C0C"/>
<path d="M882.822 48.1609L881.019 52.1344L876.636 50.9991C870.777 49.4783 865.853 55.3474 868.715 60.4347L870.856 64.2475L867.183 66.7966C862.281 70.2024 864.039 77.5174 870.011 78.567L874.484 79.3488L874.293 83.665C874.034 89.427 881.155 92.6829 885.741 88.9022L889.177 86.0641L892.614 88.9022C897.2 92.6829 904.31 89.427 904.062 83.665L903.87 79.3488L908.344 78.567C914.316 77.5174 916.073 70.2024 911.172 66.7966L907.499 64.2475L909.639 60.4347C912.501 55.3474 907.577 49.4783 901.718 50.9991L897.335 52.1344L895.532 48.1609C893.132 42.8594 885.234 42.8594 882.834 48.1609H882.822Z" fill="#ED6C0C"/>
<path d="M882.822 48.1609L881.019 52.1344L876.636 50.9991C870.777 49.4783 865.853 55.3474 868.715 60.4347L870.856 64.2475L867.183 66.7966C862.281 70.2024 864.039 77.5174 870.011 78.567L874.484 79.3488L874.293 83.665C874.034 89.427 881.155 92.6829 885.741 88.9022L889.177 86.0641L892.614 88.9022C897.2 92.6829 904.31 89.427 904.062 83.665L903.87 79.3488L908.344 78.567C914.316 77.5174 916.073 70.2024 911.172 66.7966L907.499 64.2475L909.639 60.4347C912.501 55.3474 907.577 49.4783 901.718 50.9991L897.335 52.1344L895.532 48.1609C893.132 42.8594 885.234 42.8594 882.834 48.1609H882.822Z" fill="#ED6C0C"/>
<path d="M885.695 45.9761L883.893 49.9496L879.509 48.8143C873.65 47.2935 868.726 53.1626 871.588 58.2499L873.729 62.0627L870.056 64.6117C865.154 68.0176 866.912 75.3326 872.884 76.3822L877.357 77.164L877.166 81.4802C876.907 87.2422 884.028 90.4981 888.614 86.7174L892.05 83.8792L895.487 86.7174C900.073 90.4981 907.183 87.2422 906.935 81.4802L906.743 77.164L911.217 76.3822C917.189 75.3326 918.946 68.0176 914.045 64.6117L910.372 62.0627L912.512 58.2499C915.374 53.1626 910.45 47.2935 904.591 48.8143L900.208 49.9496L898.405 45.9761C896.005 40.6746 888.107 40.6746 885.707 45.9761H885.695Z" fill="#ED6C0C"/>
<path d="M885.695 45.9761L883.893 49.9496L879.509 48.8143C873.65 47.2935 868.726 53.1626 871.588 58.2499L873.729 62.0627L870.056 64.6117C865.154 68.0176 866.912 75.3326 872.884 76.3822L877.357 77.164L877.166 81.4802C876.907 87.2422 884.028 90.4981 888.614 86.7174L892.05 83.8792L895.487 86.7174C900.073 90.4981 907.183 87.2422 906.935 81.4802L906.743 77.164L911.217 76.3822C917.189 75.3326 918.946 68.0176 914.045 64.6117L910.372 62.0627L912.512 58.2499C915.374 53.1626 910.45 47.2935 904.591 48.8143L900.208 49.9496L898.405 45.9761C896.005 40.6746 888.107 40.6746 885.707 45.9761H885.695Z" fill="#ED6C0C"/>
<path d="M655.452 229.3C654.336 229.3 653.288 229.525 652.33 229.921C651.474 230.285 650.697 230.778 650.043 231.399C648.59 232.727 647.688 234.601 647.688 236.679C647.688 238.875 648.691 240.835 650.291 242.174C650.888 242.698 651.576 243.127 652.33 243.437C653.288 243.834 654.336 244.059 655.452 244.059H662.516C662.686 244.059 663.08 244.037 663.114 244.037V252.423C663.114 252.423 662.686 252.402 662.516 252.402H655.452C654.336 252.402 653.288 252.627 652.33 253.023C651.654 253.301 651.035 253.676 650.483 254.105C648.77 255.465 647.688 257.5 647.688 259.781C647.688 262.416 649.142 264.729 651.328 266.014C651.643 266.218 651.981 266.389 652.33 266.539C653.288 266.935 654.336 267.16 655.452 267.16H675.643C675.643 267.16 675.745 267.16 675.79 267.15L674.821 287.499H616.071C616.623 276.382 616.849 265.04 616.961 253.708L616.849 242.581C616.849 231.656 616.511 220.635 616.071 209.829H672.398L673.401 229.3H673.288M703.565 229.3H704.579C705.57 229.3 706.517 229.471 707.384 229.803C708.342 230.146 709.21 230.682 709.931 231.346C711.418 232.684 712.342 234.58 712.342 236.679C712.342 238.896 711.317 240.878 709.694 242.227C709.018 242.795 708.241 243.245 707.384 243.555C706.517 243.887 705.57 244.059 704.579 244.059H695.621V252.412C695.745 252.402 704.41 252.402 704.579 252.402C705.57 252.402 706.517 252.573 707.384 252.905C708.151 253.184 708.86 253.58 709.48 254.062C711.227 255.422 712.331 257.478 712.331 259.781C712.331 262.448 710.844 264.783 708.624 266.068C708.229 266.303 707.813 266.507 707.373 266.657C706.506 266.989 705.559 267.16 704.567 267.16C704.398 267.16 683.181 267.16 683.08 267.139H683.001C683.001 267.139 682.956 267.16 682.934 267.139L683.903 287.488H742.652C742.1 276.371 741.886 265.029 741.773 253.698L741.886 242.57C741.886 231.645 742.213 220.625 742.652 209.818H686.336L685.322 229.289H686.404M607.034 287.499C604.725 261.891 603.508 235.148 603.508 209.54H526.538C526.538 235.148 525.321 261.891 523 287.499H545.017C544.983 287.349 544.983 284.982 544.983 284.821C544.983 283.279 545.479 281.855 546.324 280.687C546.933 279.82 547.733 279.081 548.679 278.545C549.862 277.838 551.259 277.442 552.747 277.442C553.952 277.442 555.102 277.71 556.127 278.181C556.904 278.534 557.603 279.006 558.2 279.573C559.631 280.912 560.51 282.765 560.51 284.821C560.51 284.982 560.51 287.338 560.476 287.499H570.719C570.685 287.338 570.685 284.982 570.685 284.821C570.685 282.433 571.868 280.312 573.716 278.984L573.761 278.759V278.952C575.057 277.999 576.679 277.442 578.448 277.442C579.44 277.442 580.398 277.613 581.265 277.945C583.665 278.824 585.479 280.805 586.031 283.247C586.155 283.75 586.212 284.275 586.212 284.821C586.212 284.982 586.212 287.349 586.178 287.509H607.034V287.499ZM790.844 287.499C790.844 287.499 790.867 286.021 790.867 285.86C790.867 284.65 790.562 283.515 790.022 282.519C788.748 280.119 786.134 278.481 783.103 278.481C781.019 278.481 779.115 279.263 777.729 280.548C776.253 281.876 775.34 283.772 775.34 285.86C775.34 286.021 775.362 287.467 775.362 287.499H751.745C756.714 261.891 760.692 235.33 763.452 209.722H804.309C806.968 235.33 810.946 261.891 815.915 287.499H790.844ZM783.036 228.55C778.731 228.55 775.238 231.86 775.238 235.951C775.238 240.042 778.731 243.362 783.036 243.362C787.34 243.362 790.822 240.042 790.822 235.951C790.822 231.86 787.329 228.55 783.036 228.55ZM850.033 266.282C849.695 247.389 849.921 228.39 850.698 209.818H825.075C826.292 235.426 826.292 261.88 825.075 287.488H883.825L884.929 264.183C873.448 265.554 861.74 266.079 850.033 266.282Z" fill="#FFCA00"/>
<path d="M882.822 210.161L881.019 214.134L876.636 212.999C870.777 211.478 865.853 217.347 868.715 222.435L870.856 226.248L867.183 228.797C862.281 232.202 864.039 239.517 870.011 240.567L874.484 241.349L874.293 245.665C874.034 251.427 881.155 254.683 885.741 250.902L889.177 248.064L892.614 250.902C897.2 254.683 904.31 251.427 904.062 245.665L903.87 241.349L908.344 240.567C914.316 239.517 916.073 232.202 911.172 228.797L907.499 226.248L909.639 222.435C912.501 217.347 907.577 211.478 901.718 212.999L897.335 214.134L895.532 210.161C893.132 204.859 885.234 204.859 882.834 210.161H882.822Z" fill="#FFCA00"/>
<path d="M882.822 210.161L881.019 214.134L876.636 212.999C870.777 211.478 865.853 217.347 868.715 222.435L870.856 226.248L867.183 228.797C862.281 232.202 864.039 239.517 870.011 240.567L874.484 241.349L874.293 245.665C874.034 251.427 881.155 254.683 885.741 250.902L889.177 248.064L892.614 250.902C897.2 254.683 904.31 251.427 904.062 245.665L903.87 241.349L908.344 240.567C914.316 239.517 916.073 232.202 911.172 228.797L907.499 226.248L909.639 222.435C912.501 217.347 907.577 211.478 901.718 212.999L897.335 214.134L895.532 210.161C893.132 204.859 885.234 204.859 882.834 210.161H882.822Z" fill="#FFCA00"/>
<path d="M885.695 207.976L883.893 211.95L879.509 210.814C873.65 209.293 868.726 215.163 871.588 220.25L873.729 224.063L870.056 226.612C865.154 230.018 866.912 237.333 872.884 238.382L877.357 239.164L877.166 243.48C876.907 249.242 884.028 252.498 888.614 248.717L892.05 245.879L895.487 248.717C900.073 252.498 907.183 249.242 906.935 243.48L906.743 239.164L911.217 238.382C917.189 237.333 918.946 230.018 914.045 226.612L910.372 224.063L912.512 220.25C915.374 215.163 910.45 209.293 904.591 210.814L900.208 211.95L898.405 207.976C896.005 202.675 888.107 202.675 885.707 207.976H885.695Z" fill="#FFCA00"/>
<path d="M885.695 207.976L883.893 211.95L879.509 210.814C873.65 209.293 868.726 215.163 871.588 220.25L873.729 224.063L870.056 226.612C865.154 230.018 866.912 237.333 872.884 238.382L877.357 239.164L877.166 243.48C876.907 249.242 884.028 252.498 888.614 248.717L892.05 245.879L895.487 248.717C900.073 252.498 907.183 249.242 906.935 243.48L906.743 239.164L911.217 238.382C917.189 237.333 918.946 230.018 914.045 226.612L910.372 224.063L912.512 220.25C915.374 215.163 910.45 209.293 904.591 210.814L900.208 211.95L898.405 207.976C896.005 202.675 888.107 202.675 885.707 207.976H885.695Z" fill="#FFCA00"/>
<path d="M655.452 396.3C654.336 396.3 653.288 396.525 652.33 396.921C651.474 397.285 650.697 397.778 650.043 398.399C648.59 399.727 647.688 401.601 647.688 403.679C647.688 405.875 648.691 407.835 650.291 409.174C650.888 409.698 651.576 410.127 652.33 410.437C653.288 410.834 654.336 411.059 655.452 411.059H662.516C662.686 411.059 663.08 411.037 663.114 411.037V419.423C663.114 419.423 662.686 419.402 662.516 419.402H655.452C654.336 419.402 653.288 419.627 652.33 420.023C651.654 420.301 651.035 420.676 650.483 421.105C648.77 422.465 647.688 424.5 647.688 426.781C647.688 429.416 649.142 431.729 651.328 433.014C651.643 433.218 651.981 433.389 652.33 433.539C653.288 433.935 654.336 434.16 655.452 434.16H675.643C675.643 434.16 675.745 434.16 675.79 434.15L674.821 454.499H616.071C616.623 443.382 616.849 432.04 616.961 420.708L616.849 409.581C616.849 398.656 616.511 387.635 616.071 376.829H672.398L673.401 396.3H673.288M703.565 396.3H704.579C705.57 396.3 706.517 396.471 707.384 396.803C708.342 397.146 709.21 397.682 709.931 398.346C711.418 399.684 712.342 401.58 712.342 403.679C712.342 405.896 711.317 407.878 709.694 409.227C709.018 409.795 708.241 410.245 707.384 410.555C706.517 410.887 705.57 411.059 704.579 411.059H695.621V419.412C695.745 419.402 704.41 419.402 704.579 419.402C705.57 419.402 706.517 419.573 707.384 419.905C708.151 420.184 708.86 420.58 709.48 421.062C711.227 422.422 712.331 424.478 712.331 426.781C712.331 429.448 710.844 431.783 708.624 433.068C708.229 433.303 707.813 433.507 707.373 433.657C706.506 433.989 705.559 434.16 704.567 434.16C704.398 434.16 683.181 434.16 683.08 434.139H683.001C683.001 434.139 682.956 434.16 682.934 434.139L683.903 454.488H742.652C742.1 443.371 741.886 432.029 741.773 420.698L741.886 409.57C741.886 398.645 742.213 387.625 742.652 376.818H686.336L685.322 396.289H686.404M607.034 454.499C604.725 428.891 603.508 402.148 603.508 376.54H526.538C526.538 402.148 525.321 428.891 523 454.499H545.017C544.983 454.349 544.983 451.982 544.983 451.821C544.983 450.279 545.479 448.855 546.324 447.687C546.933 446.82 547.733 446.081 548.679 445.545C549.862 444.838 551.259 444.442 552.747 444.442C553.952 444.442 555.102 444.71 556.127 445.181C556.904 445.534 557.603 446.006 558.2 446.573C559.631 447.912 560.51 449.765 560.51 451.821C560.51 451.982 560.51 454.338 560.476 454.499H570.719C570.685 454.338 570.685 451.982 570.685 451.821C570.685 449.433 571.868 447.312 573.716 445.984L573.761 445.759V445.952C575.057 444.999 576.679 444.442 578.448 444.442C579.44 444.442 580.398 444.613 581.265 444.945C583.665 445.824 585.479 447.805 586.031 450.247C586.155 450.75 586.212 451.275 586.212 451.821C586.212 451.982 586.212 454.349 586.178 454.509H607.034V454.499ZM790.844 454.499C790.844 454.499 790.867 453.021 790.867 452.86C790.867 451.65 790.562 450.515 790.022 449.519C788.748 447.119 786.134 445.481 783.103 445.481C781.019 445.481 779.115 446.263 777.729 447.548C776.253 448.876 775.34 450.772 775.34 452.86C775.34 453.021 775.362 454.467 775.362 454.499H751.745C756.714 428.891 760.692 402.33 763.452 376.722H804.309C806.968 402.33 810.946 428.891 815.915 454.499H790.844ZM783.036 395.55C778.731 395.55 775.238 398.86 775.238 402.951C775.238 407.042 778.731 410.362 783.036 410.362C787.34 410.362 790.822 407.042 790.822 402.951C790.822 398.86 787.329 395.55 783.036 395.55ZM850.033 433.282C849.695 414.389 849.921 395.39 850.698 376.818H825.075C826.292 402.426 826.292 428.88 825.075 454.488H883.825L884.929 431.183C873.448 432.554 861.74 433.079 850.033 433.282Z" fill="#FFCA00"/>
<path d="M882.822 377.161L881.019 381.134L876.636 379.999C870.777 378.478 865.853 384.347 868.715 389.435L870.856 393.248L867.183 395.797C862.281 399.202 864.039 406.517 870.011 407.567L874.484 408.349L874.293 412.665C874.034 418.427 881.155 421.683 885.741 417.902L889.177 415.064L892.614 417.902C897.2 421.683 904.31 418.427 904.062 412.665L903.87 408.349L908.344 407.567C914.316 406.517 916.073 399.202 911.172 395.797L907.499 393.248L909.639 389.435C912.501 384.347 907.577 378.478 901.718 379.999L897.335 381.134L895.532 377.161C893.132 371.859 885.234 371.859 882.834 377.161H882.822Z" fill="#FFCA00"/>
<path d="M882.822 377.161L881.019 381.134L876.636 379.999C870.777 378.478 865.853 384.347 868.715 389.435L870.856 393.248L867.183 395.797C862.281 399.202 864.039 406.517 870.011 407.567L874.484 408.349L874.293 412.665C874.034 418.427 881.155 421.683 885.741 417.902L889.177 415.064L892.614 417.902C897.2 421.683 904.31 418.427 904.062 412.665L903.87 408.349L908.344 407.567C914.316 406.517 916.073 399.202 911.172 395.797L907.499 393.248L909.639 389.435C912.501 384.347 907.577 378.478 901.718 379.999L897.335 381.134L895.532 377.161C893.132 371.859 885.234 371.859 882.834 377.161H882.822Z" stroke="#FFCA00" stroke-width="2" stroke-linejoin="round"/>
<path d="M885.695 374.976L883.893 378.95L879.509 377.814C873.65 376.293 868.726 382.163 871.588 387.25L873.729 391.063L870.056 393.612C865.154 397.018 866.912 404.333 872.884 405.382L877.357 406.164L877.166 410.48C876.907 416.242 884.028 419.498 888.614 415.717L892.05 412.879L895.487 415.717C900.073 419.498 907.183 416.242 906.935 410.48L906.743 406.164L911.217 405.382C917.189 404.333 918.946 397.018 914.045 393.612L910.372 391.063L912.512 387.25C915.374 382.163 910.45 376.293 904.591 377.814L900.208 378.95L898.405 374.976C896.005 369.675 888.107 369.675 885.707 374.976H885.695Z" fill="#FFCA00"/>
<path d="M885.695 374.976L883.893 378.95L879.509 377.814C873.65 376.293 868.726 382.163 871.588 387.25L873.729 391.063L870.056 393.612C865.154 397.018 866.912 404.333 872.884 405.382L877.357 406.164L877.166 410.48C876.907 416.242 884.028 419.498 888.614 415.717L892.05 412.879L895.487 415.717C900.073 419.498 907.183 416.242 906.935 410.48L906.743 406.164L911.217 405.382C917.189 404.333 918.946 397.018 914.045 393.612L910.372 391.063L912.512 387.25C915.374 382.163 910.45 376.293 904.591 377.814L900.208 378.95L898.405 374.976C896.005 369.675 888.107 369.675 885.707 374.976H885.695Z" fill="#FFCA00"/>
</svg>
