<svg width="465" height="549" viewBox="0 0 465 549" fill="none" xmlns="http://www.w3.org/2000/svg">
<rect x="0.5" y="0.5" width="464" height="548" fill="black" stroke="white"/>
<path d="M281.371 406.077L243.935 412.242C234.314 413.958 234.314 406.077 234.314 406.077V387.233C223.664 404.711 200.65 412.587 183.821 412.587C137.792 412.587 111.341 376.269 111.341 328.297C111.341 275.191 146.033 248.12 192.062 248.12C208.892 248.12 222.977 252.919 234.314 260.8V189.53C234.314 177.541 230.878 173.083 216.797 170.346V165.887L263.854 156.635V382.785C263.854 399.572 267.632 401.629 281.371 401.629V406.088V406.077ZM234.314 302.257C234.314 269.022 213.702 252.574 192.755 252.574C170.081 252.574 147.072 268.676 147.072 323.498C147.072 378.321 164.589 402.649 194.475 402.649C217.144 402.649 234.319 386.202 234.319 362.218V302.257H234.314Z" stroke="white" stroke-width="3"/>
<path d="M275.149 399.306L237.713 405.47C228.092 407.187 228.092 399.306 228.092 399.306V380.461C217.443 397.94 194.428 405.816 177.599 405.816C131.57 405.816 105.12 369.498 105.12 321.526C105.12 268.42 139.812 241.349 185.841 241.349C202.67 241.349 216.755 246.148 228.092 254.029V182.759C228.092 170.77 224.656 166.311 210.576 163.574V159.116L257.633 149.864V376.013C257.633 392.801 261.41 394.858 275.149 394.858V399.316V399.306ZM228.092 295.486C228.092 262.25 207.48 245.802 186.533 245.802C163.86 245.802 140.85 261.905 140.85 316.727C140.85 371.549 158.367 395.878 188.254 395.878C210.922 395.878 228.097 379.43 228.097 355.447V295.486H228.092Z" stroke="white" stroke-width="3"/>
<path d="M268.923 392.534L231.487 398.699C221.866 400.415 221.866 392.534 221.866 392.534V373.689C211.216 391.168 188.202 399.044 171.372 399.044C125.344 399.044 98.8931 362.726 98.8931 314.754C98.8931 261.648 133.585 234.577 179.614 234.577C196.443 234.577 210.529 239.376 221.866 247.257V175.987C221.866 163.998 218.429 159.54 204.349 156.803V152.344L251.406 143.092V369.241C251.406 386.029 255.183 388.086 268.923 388.086V392.544V392.534ZM221.871 288.714C221.871 255.478 201.259 239.031 180.312 239.031C157.638 239.031 134.629 255.133 134.629 309.955C134.629 364.777 152.146 389.106 182.032 389.106C204.701 389.106 221.876 372.659 221.876 348.675V288.714H221.871Z" stroke="white" stroke-width="3"/>
<path d="M262.701 385.762L225.265 391.927C215.643 393.643 215.643 385.762 215.643 385.762V366.918C204.994 384.396 181.98 392.272 165.15 392.272C119.121 392.272 92.6709 355.954 92.6709 307.982C92.6709 254.877 127.363 227.806 173.392 227.806C190.221 227.806 204.307 232.604 215.643 240.485V169.215C215.643 157.226 212.207 152.768 198.127 150.031V145.572L245.184 136.32V362.47C245.184 379.257 248.961 381.314 262.701 381.314V385.773V385.762ZM215.643 281.942C215.643 248.707 195.032 232.259 174.084 232.259C151.411 232.259 128.402 248.361 128.402 303.183C128.402 358.006 145.918 382.335 175.805 382.335C198.473 382.335 215.649 365.887 215.649 341.903V281.942H215.643Z" stroke="white" stroke-width="3"/>
<path d="M256.478 378.985L219.043 385.15C209.421 386.866 209.421 378.985 209.421 378.985V360.141C198.772 377.62 175.757 385.495 158.928 385.495C112.899 385.495 86.4487 349.177 86.4487 301.205C86.4487 248.1 121.141 221.029 167.17 221.029C183.999 221.029 198.085 225.827 209.421 233.709V162.439C209.421 150.45 205.985 145.991 191.905 143.254V138.795L238.962 129.543V355.693C238.962 372.481 242.739 374.537 256.478 374.537V378.996V378.985ZM209.421 275.165C209.421 241.93 188.81 225.482 167.862 225.482C145.189 225.482 122.18 241.584 122.18 296.407C122.18 351.229 139.696 375.558 169.583 375.558C192.251 375.558 209.427 359.11 209.427 335.127V275.165H209.421Z" stroke="white" stroke-width="3"/>
<path d="M250.252 372.214L212.816 378.378C203.195 380.095 203.195 372.214 203.195 372.214V353.369C192.545 370.848 169.531 378.724 152.702 378.724C106.673 378.724 80.2222 342.406 80.2222 294.434C80.2222 241.328 114.914 214.257 160.943 214.257C177.772 214.257 191.858 219.056 203.195 226.937V155.667C203.195 143.678 199.759 139.219 185.678 136.482V132.024L232.735 122.771V348.921C232.735 365.709 236.512 367.765 250.252 367.765V372.224V372.214ZM203.195 268.394C203.195 235.158 182.583 218.71 161.636 218.71C138.962 218.71 115.953 234.813 115.953 289.635C115.953 344.457 133.47 368.786 163.356 368.786C186.024 368.786 203.2 352.338 203.2 328.355V268.394H203.195Z" stroke="white" stroke-width="3"/>
<path d="M244.03 365.442L206.594 371.607C196.973 373.323 196.973 365.442 196.973 365.442V346.598C186.323 364.076 163.309 371.952 146.479 371.952C100.451 371.952 74 335.634 74 287.662C74 234.556 108.692 207.485 154.721 207.485C171.55 207.485 185.636 212.284 196.973 220.165V148.895C196.973 136.906 193.536 132.448 179.456 129.711V125.252L226.513 116V342.149C226.513 358.937 230.29 360.994 244.03 360.994V365.453V365.442ZM196.973 261.622C196.973 228.387 176.361 211.939 155.413 211.939C132.74 211.939 109.731 228.041 109.731 282.863C109.731 337.686 127.247 362.014 157.134 362.014C179.802 362.014 196.978 345.567 196.978 321.583V261.622H196.973Z" stroke="white" stroke-width="3"/>
<path d="M387.95 295.899C394.082 303.246 393.159 313.645 385.804 319.767C378.748 325.581 368.319 324.964 361.877 317.622C359.117 314.257 357.58 309.976 358.504 305.994C359.427 300.792 338.873 308.139 329.367 328.632V404.816C329.367 421.955 330.899 426.539 341.942 429.291V433.269H290.106V429.291C301.757 425.927 302.371 420.725 302.371 404.816V320.066C302.371 309.359 299.611 305.078 287.037 301.713V298.039L329.362 289.164V321.295C340.704 300.489 358.194 291.618 370.459 290.085C375.978 289.473 383.648 291.001 387.944 295.899H387.95Z" stroke="white" stroke-width="3"/>
<path d="M382.394 289.85C388.527 297.197 387.604 307.595 380.249 313.718C373.193 319.532 362.764 318.915 356.322 311.572C353.562 308.208 352.025 303.927 352.948 299.944C353.872 294.743 333.318 302.09 323.812 322.583V398.767C323.812 415.905 325.344 420.49 336.387 423.242V427.219H284.55V423.242C296.202 419.877 296.816 414.676 296.816 398.767V314.016C296.816 303.309 294.056 299.029 281.481 295.664V291.99L323.807 283.115V315.246C335.148 294.439 352.639 285.569 364.904 284.036C370.423 283.424 378.093 284.952 382.389 289.85H382.394Z" stroke="white" stroke-width="3"/>
<path d="M376.833 283.8C382.966 291.148 382.043 301.546 374.688 307.668C367.632 313.482 357.203 312.865 350.76 305.523C348.001 302.158 346.464 297.877 347.387 293.895C348.311 288.693 327.757 296.04 318.251 316.533V392.717C318.251 409.856 319.783 414.44 330.826 417.193V421.17H278.989V417.193C290.641 413.828 291.255 408.626 291.255 392.717V307.967C291.255 297.26 288.495 292.979 275.92 289.614V285.941L318.246 277.065V309.197C329.587 288.39 347.078 279.52 359.343 277.986C364.862 277.374 372.532 278.902 376.828 283.8H376.833Z" stroke="white" stroke-width="3"/>
<path d="M371.278 277.751C377.41 285.098 376.487 295.496 369.132 301.619C362.076 307.433 351.647 306.815 345.205 299.473C342.445 296.108 340.908 291.828 341.832 287.845C342.755 282.644 322.201 289.991 312.695 310.484V386.668C312.695 403.806 314.227 408.39 325.27 411.143V415.12H273.434V411.143C285.085 407.778 285.699 402.576 285.699 386.668V301.917C285.699 291.21 282.94 286.93 270.365 283.565V279.891L312.69 271.016V303.147C324.032 282.34 341.522 273.47 353.787 271.937C359.306 271.324 366.976 272.852 371.272 277.751H371.278Z" stroke="white" stroke-width="3"/>
<path d="M365.722 271.706C371.855 279.054 370.931 289.452 363.576 295.574C356.52 301.388 346.091 300.771 339.649 293.429C336.89 290.064 335.353 285.783 336.276 281.801C337.199 276.599 316.645 283.946 307.139 304.439V380.623C307.139 397.762 308.671 402.346 319.714 405.099V409.076H267.878V405.099C279.529 401.734 280.143 396.532 280.143 380.623V295.873C280.143 285.166 277.384 280.885 264.809 277.52V273.847L307.134 264.971V297.103C318.476 276.296 335.966 267.426 348.232 265.892C353.751 265.28 361.42 266.808 365.717 271.706H365.722Z" stroke="white" stroke-width="3"/>
<path d="M360.161 265.657C366.294 273.004 365.371 283.402 358.016 289.525C350.96 295.339 340.531 294.722 334.089 287.38C331.329 284.015 329.792 279.734 330.715 275.752C331.639 270.55 311.085 277.897 301.579 298.39V374.574C301.579 391.712 303.111 396.297 314.154 399.049V403.026H262.317V399.049C273.969 395.684 274.583 390.483 274.583 374.574V289.823C274.583 279.116 271.823 274.836 259.249 271.471V267.797L301.574 258.922V291.053C312.916 270.246 330.406 261.376 342.671 259.843C348.19 259.231 355.86 260.759 360.156 265.657H360.161Z" stroke="white" stroke-width="3"/>
<path d="M354.606 259.607C360.738 266.955 359.815 277.353 352.46 283.476C345.404 289.29 334.975 288.672 328.533 281.33C325.774 277.965 324.236 273.684 325.16 269.702C326.083 264.5 305.529 271.848 296.023 292.341V368.524C296.023 385.663 297.555 390.247 308.598 393V396.977H256.762V393C268.413 389.635 269.027 384.433 269.027 368.524V283.774C269.027 273.067 266.268 268.786 253.693 265.421V261.748L296.018 252.872V285.004C307.36 264.197 324.85 255.327 337.115 253.793C342.634 253.181 350.304 254.709 354.601 259.607H354.606Z" stroke="white" stroke-width="3"/>
</svg>
