<svg width="326" height="138" viewBox="0 0 326 138" fill="none" xmlns="http://www.w3.org/2000/svg">
<rect x="0.5" y="0.5" width="325" height="137" fill="black" stroke="white"/>
<path d="M122.87 87.2103C122.87 78.3077 125.747 71.5316 130.584 66.9843C135.414 62.4425 142.146 60.1735 149.769 60.1735C155 60.1735 159.448 61.5835 163.102 63.9405V41.2754C163.102 39.3187 162.819 38.1167 162.087 37.2808C161.345 36.4333 160.054 35.862 157.768 35.4124L157.371 35.3341V33.0406L173.748 29.7827V105.247C173.748 106.624 173.825 107.666 173.999 108.458C174.173 109.246 174.435 109.752 174.78 110.096C175.125 110.438 175.601 110.666 176.292 110.805C176.989 110.945 177.868 110.988 178.988 110.988H179.478V112.961H178.988L179.067 113.447L166.82 115.488L166.82 115.488C165.973 115.64 165.293 115.587 164.751 115.385C164.202 115.181 163.829 114.837 163.581 114.471C163.337 114.111 163.219 113.736 163.161 113.459C163.132 113.319 163.117 113.199 163.11 113.112C163.106 113.069 163.104 113.033 163.103 113.007C163.102 112.994 163.102 112.983 163.102 112.975C163.102 112.97 163.102 112.967 163.102 112.964V112.958L163.592 112.957H163.102V108.309C159.222 113.358 152.245 115.609 147.073 115.609C139.402 115.609 133.333 112.541 129.19 107.431C125.057 102.332 122.87 95.2368 122.87 87.2103ZM134.559 85.6218C134.559 76.4889 136.452 70.4924 139.356 66.77C142.273 63.0306 146.163 61.6476 149.996 61.6475C153.552 61.6475 157.082 63.0612 159.722 65.9017C162.284 68.6599 163.98 72.7335 164.078 78.094H164.085V98.4389C164.085 106.653 158.245 112.319 150.559 112.319C145.51 112.319 141.472 110.226 138.722 105.791C135.995 101.394 134.559 94.7329 134.559 85.6218ZM135.541 85.6218C135.541 94.658 136.97 101.098 139.553 105.264C142.113 109.393 145.829 111.326 150.559 111.326C157.705 111.326 163.103 106.103 163.103 98.4389V79.087H163.102V78.5905C163.102 73.1949 161.45 69.2118 159.006 66.5819C156.561 63.9497 153.293 62.6406 149.996 62.6406C146.411 62.6406 142.828 63.9231 140.126 67.3855C137.412 70.8651 135.541 76.6074 135.541 85.6218ZM164.083 65.8173L163.312 65.2752C159.687 62.7254 155.177 61.1665 149.769 61.1665C142.333 61.1665 135.861 63.3782 131.252 67.7117C126.649 72.0397 123.851 78.5339 123.851 87.2103C123.851 95.0637 125.991 101.919 129.949 106.801C133.898 111.673 139.685 114.616 147.073 114.616C152.478 114.616 159.81 112.047 163.173 106.461L164.083 104.95V112.957C164.083 112.959 164.083 112.962 164.083 112.966C164.084 112.978 164.085 112.998 164.087 113.025C164.092 113.078 164.102 113.158 164.122 113.254C164.162 113.447 164.241 113.689 164.391 113.91C164.536 114.125 164.753 114.328 165.09 114.453C165.431 114.58 165.93 114.64 166.654 114.509L166.657 114.508L166.66 114.508L178.497 112.536V111.978C177.578 111.966 176.78 111.916 176.1 111.779C175.295 111.617 174.619 111.326 174.093 110.804C173.568 110.283 173.24 109.577 173.041 108.674C172.843 107.776 172.766 106.649 172.766 105.247V30.9898L158.352 33.8571V34.5189C160.457 34.9676 161.907 35.5778 162.822 36.6223C163.803 37.7431 164.083 39.2635 164.083 41.2754V65.8173Z" fill="white"/>
<path d="M121.043 84.7732C121.043 75.9653 123.921 69.2613 128.757 64.7624C133.588 60.2689 140.32 58.024 147.943 58.024C153.173 58.024 157.622 59.419 161.275 61.7509V39.327C161.275 37.3911 160.993 36.2018 160.261 35.3749C159.519 34.5363 158.228 33.9712 155.942 33.5263L155.545 33.4489V31.1797L171.921 27.9565V102.618C171.921 103.98 171.999 105.011 172.173 105.795C172.347 106.574 172.609 107.075 172.954 107.415C173.299 107.754 173.775 107.979 174.466 108.117C175.163 108.256 176.042 108.298 177.161 108.298H177.652V110.25H177.162L177.241 110.731L164.994 112.75L164.993 112.75C164.147 112.9 163.467 112.848 162.925 112.648C162.376 112.446 162.003 112.106 161.755 111.744C161.511 111.388 161.393 111.017 161.335 110.742C161.306 110.604 161.291 110.485 161.283 110.4C161.28 110.357 161.278 110.321 161.277 110.295C161.276 110.282 161.276 110.272 161.276 110.263C161.276 110.259 161.276 110.256 161.275 110.253V110.247L161.766 110.246H161.275V105.648C157.395 110.642 150.419 112.87 145.247 112.87C137.576 112.87 131.506 109.834 127.364 104.779C123.23 99.7343 121.043 92.7143 121.043 84.7732ZM132.733 83.2016C132.733 74.1659 134.626 68.2331 137.53 64.5503C140.447 60.8507 144.336 59.4824 148.17 59.4824C151.726 59.4824 155.256 60.881 157.896 63.6913C160.458 66.4201 162.154 70.4504 162.252 75.7538H162.259V95.8824C162.259 104.009 156.419 109.615 148.732 109.615C143.684 109.615 139.645 107.544 136.896 103.156C134.169 98.8057 132.733 92.2158 132.733 83.2016ZM133.715 83.2016C133.715 92.1416 135.144 98.5129 137.727 102.635C140.287 106.72 144.003 108.633 148.732 108.633C155.879 108.633 161.277 103.465 161.277 95.8824V76.7363H161.275V76.2451C161.275 70.9069 159.624 66.9662 157.18 64.3642C154.734 61.76 151.467 60.4649 148.17 60.4649C144.585 60.4649 141.001 61.7337 138.3 65.1593C135.586 68.6019 133.715 74.2831 133.715 83.2016ZM162.257 63.6078L161.486 63.0715C157.861 60.5488 153.351 59.0065 147.943 59.0065C140.507 59.0065 134.035 61.1947 129.426 65.482C124.822 69.764 122.025 76.1891 122.025 84.7732C122.025 92.5431 124.165 99.3258 128.123 104.156C132.072 108.975 137.859 111.887 145.247 111.887C150.652 111.887 157.983 109.345 161.347 103.819L162.257 102.324V110.246C162.257 110.248 162.257 110.251 162.257 110.255C162.258 110.267 162.259 110.286 162.261 110.313C162.266 110.366 162.276 110.445 162.296 110.539C162.336 110.731 162.415 110.97 162.565 111.189C162.71 111.402 162.927 111.602 163.263 111.726C163.605 111.852 164.104 111.911 164.828 111.782L164.831 111.781L164.834 111.781L176.671 109.829V109.277C175.752 109.265 174.954 109.216 174.274 109.08C173.469 108.92 172.793 108.633 172.267 108.116C171.742 107.6 171.414 106.902 171.215 106.009C171.017 105.12 170.94 104.005 170.94 102.618V29.1508L156.526 31.9876V32.6423C158.63 33.0862 160.081 33.69 160.996 34.7234C161.977 35.8323 162.257 37.3365 162.257 39.327V63.6078Z" fill="white"/>
<path d="M118.304 82.9471C118.304 74.1391 121.228 67.4351 126.142 62.9362C131.051 58.4427 137.892 56.1978 145.638 56.1978C150.952 56.1978 155.473 57.5928 159.185 59.9247V37.5008C159.185 35.5649 158.898 34.3757 158.154 33.5487C157.4 32.7102 156.089 32.145 153.765 31.7001L153.362 31.6227V29.3536L170.003 26.1304V100.792C170.003 102.154 170.081 103.185 170.259 103.969C170.435 104.748 170.701 105.249 171.052 105.589C171.403 105.928 171.886 106.153 172.588 106.29C173.297 106.43 174.19 106.472 175.327 106.472H175.826V108.423H175.328L175.408 108.905L162.963 110.924L162.963 110.923C162.103 111.074 161.412 111.021 160.861 110.822C160.304 110.62 159.924 110.28 159.672 109.918C159.424 109.562 159.305 109.191 159.246 108.916C159.216 108.778 159.201 108.659 159.193 108.573C159.189 108.53 159.188 108.495 159.186 108.469C159.186 108.456 159.186 108.445 159.185 108.437C159.185 108.433 159.185 108.43 159.185 108.427V108.421L159.684 108.42H159.185V103.822C155.242 108.816 148.153 111.043 142.898 111.043C135.103 111.043 128.936 108.008 124.727 102.953C120.526 97.9081 118.304 90.8881 118.304 82.9471ZM130.184 81.3754C130.184 72.3397 132.108 66.407 135.058 62.7242C138.023 59.0245 141.975 57.6562 145.87 57.6562C149.483 57.6562 153.071 59.0549 155.752 61.8651C158.356 64.594 160.079 68.6242 160.18 73.9277H160.186V94.0562C160.186 102.183 154.252 107.789 146.442 107.789C141.312 107.789 137.208 105.718 134.414 101.331C131.643 96.9798 130.184 90.3897 130.184 81.3754ZM131.182 81.3754C131.182 90.3155 132.634 96.6867 135.259 100.808C137.86 104.893 141.636 106.806 146.442 106.806C153.703 106.806 159.189 101.638 159.189 94.0562V74.9102H159.187V74.4189C159.187 69.0808 157.509 65.14 155.026 62.538C152.541 59.9339 149.22 58.6387 145.87 58.6387C142.227 58.6387 138.586 59.9075 135.841 63.3331C133.083 66.7757 131.182 72.457 131.182 81.3754ZM160.182 61.7816L159.399 61.2453C155.716 58.7226 151.133 57.1803 145.638 57.1803C138.082 57.1803 131.505 59.3685 126.822 63.6558C122.144 67.9378 119.302 74.3629 119.302 82.9471C119.302 90.7169 121.476 97.4996 125.498 102.33C129.511 107.149 135.391 110.061 142.898 110.061C148.39 110.061 155.84 107.519 159.258 101.993L160.182 100.498V108.42C160.183 108.422 160.183 108.425 160.183 108.429C160.183 108.44 160.184 108.46 160.187 108.487C160.191 108.54 160.202 108.619 160.222 108.713C160.263 108.905 160.343 109.144 160.495 109.363C160.643 109.576 160.863 109.776 161.205 109.9C161.552 110.025 162.059 110.085 162.795 109.955L162.798 109.955L162.801 109.954L174.829 108.003V107.451C173.895 107.439 173.084 107.39 172.393 107.254C171.575 107.094 170.888 106.807 170.354 106.29C169.82 105.774 169.487 105.076 169.285 104.183C169.084 103.294 169.005 102.178 169.005 100.792V27.3246L154.359 30.1615V30.8161C156.497 31.2601 157.971 31.8638 158.901 32.8972C159.898 34.0061 160.182 35.5103 160.182 37.5008V61.7816Z" fill="white"/>
<path d="M116.478 80.2078C116.478 71.3998 119.356 64.6959 124.192 60.197C129.023 55.7034 135.755 53.4586 143.378 53.4586C148.608 53.4586 153.056 54.8536 156.71 57.1855V34.7616C156.71 32.8256 156.428 31.6364 155.696 30.8095C154.953 29.9709 153.663 29.4057 151.376 28.9609L150.979 28.8835V26.6143L167.356 23.3911V98.0525C167.356 99.4148 167.433 100.446 167.608 101.23C167.781 102.009 168.043 102.51 168.389 102.85C168.734 103.188 169.209 103.414 169.9 103.551C170.598 103.69 171.477 103.733 172.596 103.733H173.087V105.684H172.597L172.676 106.165L160.428 108.185L160.428 108.184C159.581 108.335 158.902 108.282 158.359 108.083C157.811 107.881 157.437 107.541 157.189 107.179C156.946 106.822 156.828 106.452 156.77 106.177C156.741 106.038 156.726 105.92 156.718 105.834C156.714 105.791 156.712 105.756 156.711 105.73C156.711 105.717 156.711 105.706 156.71 105.698C156.71 105.694 156.71 105.69 156.71 105.688V105.682L157.201 105.681H156.71V101.082C152.83 106.077 145.853 108.304 140.681 108.304C133.01 108.304 126.941 105.269 122.799 100.214C118.665 95.1688 116.478 88.1489 116.478 80.2078ZM128.168 78.6362C128.168 69.6004 130.061 63.6677 132.965 59.9849C135.882 56.2853 139.771 54.917 143.604 54.917C147.16 54.917 150.691 56.3156 153.33 59.1259C155.893 61.8547 157.588 65.8849 157.687 71.1884H157.693V91.3169C157.693 99.444 151.853 105.05 144.167 105.05C139.119 105.05 135.08 102.979 132.33 98.5914C129.604 94.2405 128.168 87.6505 128.168 78.6362ZM129.149 78.6362C129.149 87.5762 130.579 93.9475 133.162 98.0691C135.722 102.154 139.438 104.067 144.167 104.067C151.313 104.067 156.712 98.8991 156.712 91.3169V72.1709H156.71V71.6797C156.71 66.3415 155.058 62.4008 152.615 59.7988C150.169 57.1946 146.901 55.8995 143.604 55.8995C140.019 55.8995 136.436 57.1683 133.735 60.5939C131.02 64.0364 129.149 69.7177 129.149 78.6362ZM157.692 59.0424L156.921 58.506C153.296 55.9833 148.785 54.4411 143.378 54.4411C135.942 54.4411 129.469 56.6292 124.86 60.9166C120.257 65.1986 117.46 71.6237 117.46 80.2078C117.46 87.9776 119.6 94.7604 123.557 99.5905C127.507 104.41 133.293 107.322 140.681 107.322C146.086 107.322 153.418 104.78 156.782 99.2537L157.692 97.7589V105.681C157.692 105.683 157.692 105.686 157.692 105.69C157.692 105.701 157.693 105.721 157.696 105.747C157.7 105.801 157.71 105.879 157.73 105.974C157.771 106.166 157.85 106.405 157.999 106.623C158.145 106.836 158.361 107.036 158.698 107.16C159.04 107.286 159.538 107.345 160.262 107.216L160.265 107.215L160.269 107.215L172.105 105.264V104.712C171.186 104.7 170.388 104.65 169.708 104.515C168.903 104.354 168.227 104.067 167.701 103.551C167.176 103.035 166.848 102.336 166.65 101.443C166.452 100.555 166.374 99.4392 166.374 98.0525V24.5853L151.961 27.4222V28.0769C154.065 28.5208 155.515 29.1245 156.43 30.158C157.412 31.2668 157.692 32.7711 157.692 34.7616V59.0424Z" fill="white"/>
<path d="M114.652 78.3821C114.652 69.5742 117.53 62.8702 122.366 58.3713C127.197 53.8778 133.929 51.6329 141.552 51.6329C146.782 51.6329 151.231 53.0279 154.884 55.3598V32.9359C154.884 30.9999 154.602 29.8107 153.87 28.9838C153.128 28.1452 151.837 27.5801 149.551 27.1352L149.154 27.0578V24.7886L165.53 21.5654V96.2268C165.53 97.5891 165.608 98.62 165.782 99.4039C165.955 100.183 166.218 100.684 166.563 101.024C166.908 101.363 167.384 101.588 168.074 101.726C168.772 101.865 169.651 101.907 170.77 101.907H171.261V103.858H170.771L170.85 104.34L158.603 106.359L158.602 106.359C157.756 106.509 157.076 106.456 156.534 106.257C155.985 106.055 155.611 105.715 155.364 105.353C155.12 104.997 155.002 104.626 154.944 104.351C154.915 104.213 154.9 104.094 154.892 104.008C154.889 103.965 154.887 103.93 154.886 103.904C154.885 103.891 154.885 103.88 154.885 103.872C154.885 103.868 154.884 103.865 154.884 103.862V103.856L155.375 103.855H154.884V99.2568C151.004 104.251 144.028 106.478 138.856 106.478C131.185 106.478 125.115 103.443 120.973 98.3878C116.839 93.3432 114.652 86.3232 114.652 78.3821ZM126.342 76.8105C126.342 67.7747 128.235 61.842 131.139 58.1592C134.056 54.4596 137.945 53.0913 141.778 53.0913C145.334 53.0913 148.865 54.4899 151.504 57.3002C154.067 60.029 155.762 64.0593 155.861 69.3627H155.867V89.4913C155.867 97.6183 150.027 103.224 142.341 103.224C137.293 103.224 133.254 101.153 130.505 96.7657C127.778 92.4149 126.342 85.8248 126.342 76.8105ZM127.324 76.8105C127.324 85.7505 128.753 92.1218 131.336 96.2434C133.896 100.328 137.612 102.241 142.341 102.241C149.488 102.241 154.886 97.0734 154.886 89.4913V70.3452H154.884V69.854C154.884 64.5158 153.233 60.5751 150.789 57.9731C148.343 55.3689 145.076 54.0738 141.778 54.0738C138.194 54.0738 134.61 55.3426 131.909 58.7682C129.195 62.2107 127.324 67.892 127.324 76.8105ZM155.866 57.2167L155.095 56.6804C151.47 54.1576 146.96 52.6154 141.552 52.6154C134.116 52.6154 127.644 54.8035 123.035 59.0909C118.431 63.3729 115.634 69.798 115.634 78.3821C115.634 86.1519 117.774 92.9347 121.732 97.7648C125.681 102.584 131.468 105.496 138.856 105.496C144.261 105.496 151.592 102.954 154.956 97.428L155.866 95.9332V103.855C155.866 103.857 155.866 103.86 155.866 103.864C155.867 103.875 155.868 103.895 155.87 103.922C155.875 103.975 155.885 104.054 155.905 104.148C155.945 104.34 156.024 104.579 156.174 104.798C156.319 105.011 156.536 105.211 156.872 105.335C157.214 105.461 157.712 105.52 158.437 105.39L158.44 105.39L158.443 105.389L170.28 103.438V102.886C169.361 102.874 168.563 102.825 167.883 102.689C167.078 102.529 166.402 102.242 165.876 101.725C165.351 101.209 165.023 100.511 164.824 99.6176C164.626 98.7289 164.549 97.6135 164.549 96.2268V22.7597L150.135 25.5965V26.2512C152.239 26.6951 153.69 27.2989 154.605 28.3323C155.586 29.4412 155.866 30.9454 155.866 32.9359V57.2167Z" fill="white"/>
<path d="M112.826 76.2538C112.826 67.3511 115.704 60.5751 120.54 56.0278C125.371 51.4859 132.103 49.2169 139.726 49.2169C144.956 49.2169 149.405 50.6269 153.058 52.9839V30.3189C153.058 28.3621 152.776 27.1601 152.044 26.3243C151.301 25.4767 150.011 24.9055 147.725 24.4558L147.327 24.3776V22.084L163.704 18.8262V94.2903C163.704 95.6673 163.781 96.7093 163.956 97.5016C164.129 98.2894 164.391 98.7957 164.737 99.139C165.082 99.4814 165.557 99.7091 166.248 99.8482C166.946 99.9887 167.825 100.032 168.944 100.032H169.435V102.004H168.945L169.024 102.491L156.776 104.531L156.776 104.531C155.929 104.683 155.25 104.63 154.707 104.428C154.159 104.224 153.785 103.881 153.537 103.515C153.294 103.155 153.176 102.78 153.118 102.502C153.089 102.362 153.074 102.242 153.066 102.156C153.062 102.112 153.061 102.077 153.059 102.05C153.059 102.037 153.059 102.026 153.059 102.018C153.058 102.014 153.058 102.01 153.058 102.008V102.001L153.549 102.001H153.058V97.353C149.178 102.401 142.202 104.652 137.029 104.652C129.359 104.652 123.289 101.584 119.147 96.4746C115.013 91.3757 112.826 84.2803 112.826 76.2538ZM124.516 74.6653C124.516 65.5324 126.409 59.5358 129.313 55.8135C132.23 52.0741 136.119 50.691 139.952 50.691C143.508 50.691 147.039 52.1047 149.678 54.9452C152.241 57.7034 153.936 61.7769 154.035 67.1374H154.041V87.4824C154.041 95.6968 148.201 101.363 140.515 101.363C135.467 101.363 131.428 99.2695 128.679 94.835C125.952 90.4374 124.516 83.7765 124.516 74.6653ZM125.497 74.6653C125.497 83.7014 126.927 90.1412 129.51 94.3072C132.07 98.4361 135.786 100.37 140.515 100.37C147.661 100.37 153.06 95.1461 153.06 87.4824V68.1305H153.058V67.6339C153.058 62.2384 151.407 58.2553 148.963 55.6253C146.517 52.9931 143.249 51.6841 139.952 51.6841C136.367 51.6841 132.784 52.9665 130.083 56.429C127.369 59.9085 125.497 65.6509 125.497 74.6653ZM154.04 54.8608L153.269 54.3187C149.644 51.7688 145.133 50.21 139.726 50.21C132.29 50.21 125.817 52.4217 121.208 56.7551C116.605 61.0832 113.808 67.5773 113.808 76.2538C113.808 84.1072 115.948 90.9629 119.906 95.8449C123.855 100.716 129.642 103.659 137.029 103.659C142.435 103.659 149.766 101.09 153.13 95.5045L154.04 93.9936V102.001C154.04 102.003 154.04 102.006 154.04 102.01C154.04 102.021 154.042 102.041 154.044 102.068C154.049 102.122 154.058 102.202 154.078 102.297C154.119 102.491 154.198 102.733 154.347 102.954C154.493 103.169 154.709 103.371 155.046 103.496C155.388 103.623 155.886 103.683 156.61 103.553L156.614 103.552L156.617 103.552L168.453 101.579V101.021C167.535 101.009 166.736 100.959 166.057 100.822C165.252 100.66 164.575 100.37 164.049 99.8476C163.524 99.3261 163.196 98.6203 162.998 97.7176C162.8 96.8193 162.723 95.692 162.723 94.2903V20.0332L148.309 22.9006V23.5623C150.413 24.011 151.863 24.6212 152.778 25.6658C153.76 26.7866 154.04 28.307 154.04 30.3189V54.8608Z" fill="white"/>
<path d="M111 73.8167C111 65.0087 113.877 58.3048 118.714 53.8058C123.545 49.3123 130.277 47.0675 137.9 47.0674C143.13 47.0674 147.578 48.4624 151.232 50.7944V28.3704C151.232 26.4345 150.95 25.2453 150.218 24.4184C149.475 23.5798 148.185 23.0146 145.898 22.5698L145.501 22.4924V20.2232L161.878 17V91.6614C161.878 93.0237 161.955 94.0546 162.13 94.8385C162.303 95.6179 162.565 96.1188 162.911 96.4584C163.256 96.7972 163.731 97.0224 164.422 97.1601C165.12 97.2991 165.999 97.3418 167.118 97.3418H167.609V99.293H167.119L167.198 99.7744L154.95 101.793L154.95 101.793C154.103 101.943 153.424 101.891 152.881 101.691C152.333 101.49 151.959 101.15 151.711 100.788C151.467 100.431 151.35 100.06 151.292 99.7859C151.263 99.6473 151.248 99.5288 151.24 99.443C151.236 99.4 151.234 99.3647 151.233 99.3388C151.233 99.3258 151.233 99.315 151.232 99.3068C151.232 99.3028 151.232 99.2994 151.232 99.2965V99.2905L151.723 99.2898H151.232V94.6914C147.352 99.6857 140.375 101.913 135.203 101.913C127.532 101.913 121.463 98.8777 117.321 93.8224C113.187 88.7777 111 81.7578 111 73.8167ZM122.69 72.2451C122.69 63.2093 124.583 57.2766 127.487 53.5938C130.404 49.8942 134.293 48.5259 138.126 48.5258C141.682 48.5258 145.213 49.9245 147.852 52.7347C150.415 55.4636 152.11 59.4938 152.209 64.7973H152.215V84.9258C152.215 93.0529 146.375 98.6585 138.689 98.6585C133.641 98.6585 129.602 96.5875 126.852 92.2003C124.126 87.8494 122.69 81.2594 122.69 72.2451ZM123.671 72.2451C123.671 81.1851 125.101 87.5564 127.684 91.678C130.244 95.763 133.96 97.676 138.689 97.676C145.835 97.676 151.234 92.508 151.234 84.9258V65.7798H151.232V65.2885C151.232 59.9504 149.58 56.0097 147.137 53.4077C144.691 50.8035 141.423 49.5083 138.126 49.5083C134.541 49.5084 130.958 50.7772 128.257 54.2027C125.542 57.6453 123.671 63.3266 123.671 72.2451ZM152.214 52.6513L151.443 52.1149C147.818 49.5922 143.307 48.0499 137.9 48.0499C130.464 48.05 123.991 50.2381 119.382 54.5255C114.779 58.8075 111.981 65.2325 111.981 73.8167C111.981 81.5865 114.122 88.3693 118.079 93.1994C122.029 98.0189 127.815 100.931 135.203 100.931C140.608 100.931 147.94 98.3889 151.304 92.8626L152.214 91.3678V99.2898C152.214 99.2918 152.214 99.2947 152.214 99.2985C152.214 99.3101 152.215 99.3299 152.218 99.3564C152.222 99.4095 152.232 99.4884 152.252 99.5828C152.293 99.7746 152.372 100.014 152.521 100.232C152.667 100.445 152.883 100.645 153.22 100.769C153.562 100.895 154.06 100.954 154.784 100.825L154.787 100.824L154.791 100.824L166.627 98.8725V98.3208C165.708 98.3089 164.91 98.2592 164.23 98.1237C163.425 97.9633 162.749 97.6763 162.223 97.1595C161.698 96.6435 161.37 95.9453 161.172 95.0521C160.974 94.1634 160.896 93.0481 160.896 91.6614V18.1942L146.483 21.0311V21.6858C148.587 22.1297 150.037 22.7334 150.952 23.7669C151.934 24.8757 152.214 26.38 152.214 28.3704V52.6513Z" fill="white"/>
<path d="M185.449 112.17V84.3563C185.449 82.6237 185.219 81.5398 184.583 80.7485C183.941 79.9494 182.81 79.3554 180.758 78.8089L180.391 78.7111V76.7279L195.34 73.6089V82.9663C199.138 77.1044 204.462 74.511 208.339 74.0287L208.343 74.0284L208.346 74.0281C210.196 73.8238 212.802 74.2962 214.384 75.9331H214.401L214.549 76.1097C216.746 78.729 216.415 82.4525 213.778 84.6367L213.776 84.6383C211.243 86.7152 207.499 86.4888 205.198 83.8791L205.193 83.873L205.187 83.8666C204.232 82.7079 203.647 81.1857 203.958 79.7092C203.89 79.6993 203.774 79.695 203.595 79.7204C203.044 79.7985 202.192 80.1153 201.198 80.7123C199.242 81.8869 196.865 84.0693 195.342 87.2792V112.17C195.342 115.006 195.477 116.669 196 117.742C196.486 118.738 197.346 119.287 199.114 119.725L199.49 119.818V122H181.403V119.832L181.761 119.73C183.619 119.196 184.462 118.557 184.908 117.534C185.143 116.996 185.282 116.318 185.359 115.43C185.436 114.543 185.449 113.477 185.449 112.17ZM186.438 112.17C186.438 113.474 186.426 114.58 186.345 115.515C186.264 116.45 186.112 117.247 185.816 117.926C185.238 119.251 184.163 120.008 182.393 120.568V121.016H198.5V120.581C196.838 120.122 195.741 119.465 195.11 118.172C194.47 116.86 194.353 114.959 194.353 112.17V87.0594L194.399 86.9606C196.013 83.4977 198.565 81.1434 200.686 79.8694C201.741 79.2363 202.723 78.8497 203.455 78.7458C203.808 78.6957 204.187 78.6984 204.489 78.855C204.653 78.9401 204.799 79.0742 204.885 79.2643C204.969 79.4504 204.976 79.646 204.944 79.8242L204.942 79.837L204.939 79.8495C204.681 80.9589 205.103 82.2081 205.947 83.2352C207.895 85.4393 211.027 85.6162 213.147 83.8785C215.349 82.0527 215.634 78.9739 213.816 76.7734L213.796 76.75C212.524 75.3074 210.183 74.8158 208.455 75.0066L208.455 75.0062C204.569 75.4922 198.943 78.3091 195.28 84.9957L194.351 84.7601V74.821L181.381 77.5272V77.9586C183.273 78.4957 184.557 79.139 185.356 80.1338C186.213 81.1994 186.438 82.5751 186.438 84.3563V112.17Z" fill="white"/>
<path d="M183.623 110.344V82.5304C183.623 80.7978 183.394 79.7139 182.758 78.9226C182.116 78.1235 180.985 77.5295 178.932 76.983L178.565 76.8853V74.9021L193.515 71.7827V81.1398C197.313 75.2782 202.637 72.6851 206.513 72.2029L206.517 72.2026L206.52 72.2022C208.37 71.998 210.977 72.4703 212.559 74.1072H212.575L212.723 74.2838C214.921 76.9032 214.589 80.6266 211.952 82.8108L211.951 82.8124C209.418 84.8893 205.674 84.6628 203.372 82.0532L203.367 82.0471L203.362 82.0407C202.407 80.882 201.822 79.3598 202.132 77.8833C202.064 77.8735 201.948 77.8691 201.769 77.8945C201.219 77.9727 200.367 78.2894 199.372 78.8864C197.416 80.061 195.039 82.2434 193.516 85.4533V110.344C193.516 113.18 193.652 114.843 194.175 115.916C194.661 116.912 195.521 117.46 197.289 117.899L197.664 117.992V120.174H179.578V118.006L179.935 117.904C181.794 117.37 182.637 116.73 183.082 115.708C183.317 115.169 183.456 114.492 183.533 113.604C183.61 112.717 183.623 111.651 183.623 110.344ZM184.612 110.344C184.612 111.648 184.6 112.754 184.519 113.689C184.438 114.624 184.286 115.421 183.99 116.1C183.412 117.425 182.337 118.182 180.567 118.741V119.189H196.674V118.755C195.012 118.295 193.915 117.639 193.284 116.346C192.644 115.034 192.527 113.133 192.527 110.344V85.2334L192.573 85.1347C194.187 81.6718 196.739 79.3175 198.861 78.0435C199.915 77.4104 200.897 77.0239 201.63 76.9199C201.982 76.8698 202.362 76.8725 202.663 77.0292C202.827 77.1143 202.973 77.2483 203.059 77.4384C203.143 77.6245 203.15 77.8201 203.119 77.9983L203.116 78.0111L203.113 78.0236C202.855 79.133 203.277 80.3822 204.121 81.4093C206.069 83.6134 209.202 83.7903 211.321 82.0525C213.523 80.2268 213.808 77.148 211.991 74.9476L211.97 74.9242C210.698 73.4815 208.358 72.9899 206.629 73.1807L206.629 73.1804C202.743 73.6663 197.118 76.4832 193.454 83.1698L192.525 82.9342V72.9951L179.555 75.7014V76.1327C181.447 76.6698 182.732 77.3131 183.531 78.3079C184.387 79.3735 184.612 80.7492 184.612 82.5304V110.344Z" fill="white"/>
<path d="M181.797 108.518V80.704C181.797 78.9714 181.567 77.8875 180.932 77.0962C180.29 76.297 179.159 75.703 177.106 75.1565L176.739 75.0588V73.0756L191.689 69.9565V79.314C195.487 73.452 200.81 70.8587 204.687 70.3764L204.691 70.3761L204.694 70.3757C206.544 70.1715 209.15 70.6438 210.733 72.2808H210.749L210.897 72.4574C213.094 75.0767 212.763 78.8002 210.126 80.9844L210.124 80.986C207.591 83.0629 203.847 82.8364 201.546 80.2268L201.541 80.2207L201.536 80.2143C200.581 79.0556 199.996 77.5333 200.306 76.0568C200.238 76.047 200.122 76.0426 199.943 76.068C199.392 76.1462 198.54 76.463 197.546 77.06C195.59 78.2345 193.213 80.417 191.69 83.6269V108.518C191.69 111.354 191.825 113.017 192.349 114.089C192.835 115.086 193.695 115.634 195.463 116.073L195.838 116.166V118.348H177.752V116.18L178.109 116.077C179.967 115.543 180.81 114.904 181.256 113.882C181.491 113.343 181.63 112.666 181.707 111.778C181.784 110.89 181.797 109.825 181.797 108.518ZM182.786 108.518C182.786 109.822 182.774 110.927 182.693 111.863C182.612 112.798 182.46 113.595 182.164 114.274C181.586 115.599 180.511 116.356 178.741 116.915V117.363H194.848V116.929C193.186 116.469 192.089 115.812 191.458 114.52C190.818 113.208 190.701 111.306 190.701 108.518V83.407L190.747 83.3083C192.361 79.8454 194.913 77.491 197.035 76.2171C198.089 75.584 199.071 75.1974 199.803 75.0934C200.156 75.0434 200.535 75.046 200.837 75.2027C201.001 75.2878 201.147 75.4219 201.233 75.612C201.317 75.798 201.324 75.9936 201.292 76.1719L201.29 76.1847L201.287 76.1972C201.029 77.3066 201.451 78.5558 202.295 79.5829C204.243 81.787 207.376 81.9639 209.495 80.2261C211.697 78.4003 211.982 75.3216 210.164 73.1211L210.144 73.0977C208.872 71.655 206.532 71.1634 204.803 71.3542L204.803 71.3539C200.917 71.8398 195.291 74.6568 191.628 81.3434L190.699 81.1078V71.1686L177.729 73.8749V74.3063C179.621 74.8433 180.905 75.4867 181.705 76.4815C182.561 77.5471 182.786 78.9228 182.786 80.704V108.518Z" fill="white"/>
<path d="M179.971 106.692V78.8778C179.971 77.1452 179.741 76.0613 179.105 75.27C178.463 74.4709 177.332 73.8769 175.28 73.3304L174.913 73.2326V71.2494L189.862 68.1304V77.4872C193.66 71.6255 198.984 69.0325 202.861 68.5502L202.865 68.5499L202.868 68.5496C204.718 68.3453 207.324 68.8177 208.906 70.4546H208.923L209.071 70.6312C211.268 73.2505 210.937 76.974 208.3 79.1582L208.298 79.1598C205.765 81.2367 202.021 81.0102 199.72 78.4006L199.715 78.3945L199.709 78.3881C198.754 77.2294 198.169 75.7072 198.48 74.2306C198.412 74.2208 198.296 74.2165 198.117 74.2419C197.566 74.32 196.714 74.6368 195.72 75.2338C193.764 76.4084 191.387 78.5908 189.864 81.8007V106.692C189.864 109.528 189.999 111.191 190.522 112.263C191.008 113.26 191.868 113.808 193.636 114.246L194.012 114.339V116.522H175.925V114.354L176.283 114.251C178.141 113.717 178.984 113.078 179.43 112.056C179.665 111.517 179.804 110.84 179.881 109.952C179.958 109.064 179.971 107.998 179.971 106.692ZM180.96 106.692C180.96 107.996 180.948 109.101 180.867 110.036C180.786 110.971 180.634 111.769 180.338 112.448C179.76 113.773 178.685 114.53 176.915 115.089V115.537H193.022V115.103C191.36 114.643 190.263 113.986 189.632 112.693C188.992 111.382 188.875 109.48 188.875 106.692V81.5808L188.921 81.4821C190.535 78.0192 193.087 75.6649 195.208 74.3909C196.263 73.7578 197.245 73.3712 197.977 73.2672C198.33 73.2172 198.709 73.2198 199.011 73.3765C199.175 73.4616 199.321 73.5957 199.407 73.7858C199.491 73.9719 199.498 74.1675 199.466 74.3457L199.464 74.3585L199.461 74.371C199.203 75.4804 199.625 76.7296 200.469 77.7567C202.417 79.9608 205.549 80.1377 207.669 78.3999C209.871 76.5742 210.156 73.4954 208.338 71.2949L208.318 71.2715C207.046 69.8288 204.705 69.3372 202.977 69.528L202.977 69.5277C199.091 70.0137 193.465 72.8306 189.802 79.5172L188.873 79.2816V69.3425L175.903 72.0487V72.4801C177.795 73.0172 179.079 73.6605 179.878 74.6553C180.735 75.7209 180.96 77.0966 180.96 78.8778V106.692Z" fill="white"/>
<path d="M178.144 103.953V76.1385C178.144 74.406 177.915 73.3221 177.279 72.5307C176.637 71.7316 175.506 71.1376 173.454 70.5911L173.087 70.4934V68.5102L188.036 65.3911V74.7479C191.834 68.8863 197.158 66.2932 201.035 65.811L201.038 65.8106L201.042 65.81C202.892 65.6057 205.498 66.0784 207.08 67.7153H207.097L207.245 67.8919C209.442 70.5113 209.111 74.2348 206.474 76.419L206.472 76.4206C203.939 78.4974 200.195 78.271 197.894 75.6613L197.888 75.6552L197.883 75.6488C196.928 74.4902 196.343 72.9679 196.653 71.4914C196.586 71.4816 196.47 71.4772 196.291 71.5026C195.74 71.5808 194.888 71.8975 193.894 72.4945C191.938 73.6691 189.561 75.8516 188.038 79.0614V103.953C188.038 106.789 188.173 108.452 188.696 109.524C189.182 110.52 190.042 111.069 191.81 111.507L192.185 111.6V113.782H174.099V111.615L174.456 111.512C176.315 110.978 177.158 110.339 177.604 109.316C177.839 108.778 177.978 108.101 178.055 107.213C178.131 106.325 178.144 105.259 178.144 103.953ZM179.134 103.953C179.134 105.256 179.122 106.362 179.04 107.297C178.959 108.232 178.808 109.03 178.512 109.708C177.934 111.034 176.859 111.79 175.089 112.35V112.798H191.196V112.364C189.533 111.904 188.437 111.247 187.806 109.954C187.166 108.642 187.048 106.741 187.048 103.953V78.8416L187.094 78.7429C188.709 75.2799 191.261 72.9256 193.382 71.6516C194.437 71.0186 195.418 70.632 196.151 70.528C196.504 70.4779 196.883 70.4806 197.185 70.6373C197.349 70.7224 197.495 70.8564 197.581 71.0465C197.665 71.2326 197.672 71.4282 197.64 71.6064L197.638 71.6193L197.635 71.6318C197.376 72.7411 197.799 73.9903 198.642 75.0175C200.591 77.2216 203.723 77.3984 205.843 75.6607C208.045 73.8349 208.33 70.7561 206.512 68.5557L206.491 68.5323C205.22 67.0896 202.879 66.598 201.151 66.7888L201.151 66.7885C197.265 67.2744 191.639 70.0913 187.976 76.7779L187.047 76.5424V66.6032L174.076 69.3095V69.7409C175.969 70.2779 177.253 70.9213 178.052 71.916C178.908 72.9817 179.134 74.3573 179.134 76.1385V103.953Z" fill="white"/>
<path d="M176.318 102.127V74.3129C176.318 72.5803 176.089 71.4964 175.453 70.7051C174.811 69.9059 173.68 69.3119 171.628 68.7654L171.261 68.6677V66.6845L186.21 63.5654V72.9222C190.008 67.0606 195.332 64.4675 199.209 63.9853L199.212 63.985L199.215 63.9843C201.066 63.7801 203.672 64.2527 205.254 65.8896H205.271L205.419 66.0662C207.616 68.6856 207.284 72.4091 204.648 74.5933L204.646 74.5949C202.113 76.6717 198.369 76.4453 196.068 73.8356L196.062 73.8296L196.057 73.8231C195.102 72.6645 194.517 71.1422 194.827 69.6657C194.76 69.6559 194.644 69.6515 194.465 69.6769C193.914 69.7551 193.062 70.0718 192.068 70.6688C190.111 71.8434 187.735 74.0259 186.212 77.2358V102.127C186.212 104.963 186.347 106.626 186.87 107.698C187.356 108.695 188.216 109.243 189.984 109.682L190.359 109.774V111.957H172.273V109.789L172.63 109.686C174.489 109.152 175.332 108.513 175.778 107.491C176.013 106.952 176.151 106.275 176.228 105.387C176.305 104.499 176.318 103.434 176.318 102.127ZM177.308 102.127C177.308 103.431 177.295 104.536 177.214 105.472C177.133 106.406 176.981 107.204 176.685 107.883C176.107 109.208 175.032 109.965 173.263 110.524V110.972H189.37V110.538C187.707 110.078 186.61 109.421 185.98 108.128C185.34 106.817 185.222 104.915 185.222 102.127V77.0159L185.268 76.9172C186.883 73.4543 189.434 71.0999 191.556 69.8259C192.61 69.1929 193.592 68.8063 194.325 68.7023C194.677 68.6523 195.057 68.6549 195.359 68.8116C195.523 68.8967 195.669 69.0308 195.755 69.2209C195.839 69.4069 195.846 69.6025 195.814 69.7808L195.812 69.7936L195.809 69.8061C195.55 70.9155 195.972 72.1647 196.816 73.1918C198.765 75.3959 201.897 75.5728 204.017 73.835C206.219 72.0092 206.504 68.9304 204.686 66.73L204.665 66.7066C203.394 65.2639 201.053 64.7723 199.325 64.9631L199.324 64.9628C195.439 65.4487 189.813 68.2657 186.15 74.9522L185.221 74.7167V64.7775L172.25 67.4838V67.9152C174.143 68.4522 175.427 69.0956 176.226 70.0904C177.082 71.156 177.308 72.5316 177.308 74.3129V102.127Z" fill="white"/>
<path d="M174.492 100.301V72.4867C174.492 70.7541 174.263 69.6702 173.627 68.8789C172.985 68.0797 171.854 67.4858 169.801 66.9393L169.435 66.8415V64.8583L184.384 61.7393V71.0961C188.182 65.2344 193.506 62.6414 197.383 62.1591L197.386 62.1588L197.389 62.1581C199.24 61.9539 201.846 62.4266 203.428 64.0635H203.444L203.592 64.2401C205.79 66.8594 205.458 70.5829 202.821 72.7671L202.819 72.7687C200.286 74.8456 196.543 74.6191 194.242 72.0095L194.236 72.0034L194.231 71.997C193.276 70.8383 192.691 69.316 193.001 67.8395C192.933 67.8297 192.817 67.8253 192.638 67.8507C192.088 67.9289 191.236 68.2457 190.241 68.8427C188.285 70.0172 185.908 72.1997 184.385 75.4096V100.301C184.385 103.137 184.521 104.8 185.044 105.872C185.53 106.869 186.39 107.417 188.158 107.855L188.533 107.948V110.131H170.447V107.963L170.804 107.86C172.663 107.326 173.506 106.687 173.952 105.664C174.186 105.126 174.325 104.449 174.402 103.561C174.479 102.673 174.492 101.607 174.492 100.301ZM175.482 100.301C175.482 101.604 175.469 102.71 175.388 103.645C175.307 104.58 175.155 105.378 174.859 106.056C174.281 107.382 173.206 108.139 171.436 108.698V109.146H187.544V108.712C185.881 108.252 184.784 107.595 184.154 106.302C183.514 104.991 183.396 103.089 183.396 100.301V75.1897L183.442 75.091C185.056 71.6281 187.608 69.2738 189.73 67.9998C190.784 67.3667 191.766 66.9801 192.499 66.8761C192.851 66.8261 193.231 66.8287 193.533 66.9854C193.696 67.0705 193.842 67.2046 193.928 67.3947C194.013 67.5807 194.019 67.7764 193.988 67.9546L193.985 67.9674L193.983 67.9799C193.724 69.0893 194.146 70.3385 194.99 71.3656C196.939 73.5697 200.071 73.7466 202.19 72.0088C204.393 70.1831 204.677 67.1043 202.86 64.9038L202.839 64.8804C201.567 63.4377 199.227 62.9461 197.499 63.1369L197.498 63.1366C193.612 63.6225 187.987 66.4395 184.324 73.1261L183.394 72.8905V62.9514L170.424 65.6576V66.089C172.317 66.6261 173.601 67.2694 174.4 68.2642C175.256 69.3298 175.482 70.7055 175.482 72.4867V100.301Z" fill="white"/>
</svg>
