<svg width="312" height="81" viewBox="0 0 312 81" fill="none" xmlns="http://www.w3.org/2000/svg">
<path d="M10.5895 50.776L10.5895 29.5967L32.9906 51.9978L32.9906 12.2188L47.3817 12.2188L47.3817 51.8621L69.7149 29.5288L69.7149 50.8438L40.1862 80.3726L10.5895 50.776Z" fill="white"/>
<path d="M87.5895 50.776L87.5895 29.5967L109.991 51.9978L109.991 12.2188L124.382 12.2188L124.382 51.8621L146.715 29.5288L146.715 50.8438L117.186 80.3726L87.5895 50.776Z" fill="white"/>
<path d="M164.59 50.776L164.589 29.5967L186.991 51.9978L186.991 12.2188L201.382 12.2188L201.382 51.8621L223.715 29.5288L223.715 50.8438L194.186 80.3726L164.59 50.776Z" fill="white"/>
<path d="M241.59 50.776L241.589 29.5967L263.991 51.9978L263.991 12.2188L278.382 12.2188L278.382 51.8621L300.715 29.5288L300.715 50.8438L271.186 80.3726L241.59 50.776Z" fill="white"/>
</svg>
