<svg width="134" height="104" viewBox="0 0 134 104" fill="none" xmlns="http://www.w3.org/2000/svg">
<path d="M54.8591 76.6552C54.8591 92.3448 43.1678 104 27.4295 104C11.6913 104 0 92.3448 0 76.6552C0 72.1724 1.34899 67.6896 3.59731 62.7586L31.4765 0H53.5101L35.0738 50.2069C44.9664 53.7931 54.8591 64.1034 54.8591 76.6552ZM134 76.6552C134 92.3448 122.309 104 106.57 104C90.8322 104 79.1409 92.3448 79.1409 76.6552C79.1409 72.1724 80.4899 67.6896 82.7383 62.7586L110.617 0H132.651L114.215 50.2069C124.107 53.7931 134 64.1034 134 76.6552Z" fill="black"/>
</svg>
